<svg width="489" height="240" viewBox="0 0 489 240" fill="none" xmlns="http://www.w3.org/2000/svg">
<rect x="0.57503" y="1.31941" width="487.472" height="237.922" rx="17.4417" fill="white" stroke="#EFF0F6" stroke-width="0.894444"/>
<path d="M50.4561 210.951H51.3366L51.3366 215.102C51.3366 215.477 51.2622 215.798 51.1136 216.065C50.9668 216.332 50.7601 216.536 50.4932 216.677C50.2264 216.816 49.9139 216.886 49.5556 216.886C49.2259 216.886 48.9296 216.826 48.6666 216.705C48.4055 216.585 48.1987 216.411 48.0462 216.182C47.8957 215.952 47.8204 215.672 47.8204 215.342H48.698C48.698 215.504 48.7352 215.644 48.8095 215.762C48.8857 215.88 48.9896 215.973 49.1211 216.039C49.2545 216.104 49.407 216.137 49.5785 216.137C49.7652 216.137 49.9234 216.098 50.053 216.019C50.1845 215.939 50.2846 215.822 50.3532 215.668C50.4218 215.513 50.4561 215.325 50.4561 215.102L50.4561 210.951ZM53.1168 216.806H52.1791L54.286 210.951H55.3065L57.4134 216.806H56.4757L54.8206 212.014H54.7748L53.1168 216.806ZM53.274 214.513H56.3156L56.3156 215.256H53.274L53.274 214.513ZM62.9842 210.951L62.9842 216.806H62.1723L59.1965 212.512H59.1421L59.1421 216.806H58.2588L58.2588 210.951H59.0764L62.0551 215.25H62.1094L62.1094 210.951H62.9842Z" fill="#838383"/>
<path d="M156.515 216.806H155.577L157.684 210.951H158.704L160.811 216.806H159.874L158.218 212.014H158.173L156.515 216.806ZM156.672 214.513H159.713L159.713 215.256H156.672L156.672 214.513ZM161.657 216.806L161.657 210.951H163.743C164.199 210.951 164.576 211.034 164.876 211.2C165.175 211.366 165.399 211.592 165.547 211.88C165.696 212.166 165.77 212.488 165.77 212.846C165.77 213.206 165.695 213.53 165.544 213.818C165.396 214.104 165.171 214.331 164.87 214.499C164.571 214.664 164.194 214.747 163.741 214.747H162.306L162.306 213.998H163.661C163.948 213.998 164.182 213.949 164.361 213.85C164.54 213.749 164.672 213.611 164.755 213.438C164.839 213.265 164.881 213.067 164.881 212.846C164.881 212.625 164.839 212.429 164.755 212.257C164.672 212.086 164.539 211.952 164.358 211.854C164.179 211.757 163.943 211.709 163.649 211.709H162.54L162.54 216.806H161.657ZM166.806 216.806L166.806 210.951H168.893C169.346 210.951 169.723 211.029 170.022 211.185C170.323 211.342 170.548 211.558 170.696 211.834C170.845 212.109 170.919 212.426 170.919 212.786C170.919 213.145 170.844 213.46 170.694 213.732C170.545 214.003 170.32 214.214 170.019 214.364C169.72 214.515 169.343 214.59 168.89 214.59H167.309L167.309 213.83H168.81C169.096 213.83 169.328 213.789 169.507 213.707C169.688 213.625 169.821 213.506 169.905 213.349C169.988 213.193 170.03 213.005 170.03 212.786C170.03 212.565 169.988 212.374 169.902 212.212C169.818 212.05 169.685 211.926 169.504 211.84C169.325 211.752 169.09 211.709 168.798 211.709H167.689L167.689 216.806H166.806ZM169.696 214.164L171.142 216.806H170.136L168.718 214.164H169.696Z" fill="#838383"/>
<path d="M266.603 210.951H267.483L267.483 215.102C267.483 215.477 267.409 215.798 267.26 216.065C267.114 216.332 266.907 216.536 266.64 216.677C266.373 216.816 266.061 216.886 265.702 216.886C265.373 216.886 265.076 216.826 264.813 216.705C264.552 216.585 264.345 216.411 264.193 216.182C264.042 215.952 263.967 215.672 263.967 215.342H264.845C264.845 215.504 264.882 215.644 264.956 215.762C265.032 215.88 265.136 215.973 265.268 216.039C265.401 216.104 265.554 216.137 265.725 216.137C265.912 216.137 266.07 216.098 266.2 216.019C266.331 215.939 266.431 215.822 266.5 215.668C266.569 215.513 266.603 215.325 266.603 215.102L266.603 210.951ZM272.534 210.951H273.42L273.42 214.802C273.42 215.211 273.324 215.574 273.131 215.891C272.939 216.205 272.668 216.453 272.319 216.634C271.971 216.813 271.562 216.903 271.093 216.903C270.626 216.903 270.218 216.813 269.87 216.634C269.521 216.453 269.25 216.205 269.058 215.891C268.865 215.574 268.769 215.211 268.769 214.802L268.769 210.951H269.652L269.652 214.73C269.652 214.995 269.71 215.23 269.827 215.436C269.945 215.642 270.112 215.804 270.327 215.922C270.542 216.038 270.798 216.097 271.093 216.097C271.39 216.097 271.647 216.038 271.862 215.922C272.079 215.804 272.245 215.642 272.359 215.436C272.476 215.23 272.534 214.995 272.534 214.73L272.534 210.951ZM274.704 216.806L274.704 210.951H275.588L275.588 216.045H278.24L278.24 216.806H274.704Z" fill="#838383"/>
<path d="M380.451 213.878C380.451 214.503 380.337 215.041 380.108 215.491C379.879 215.938 379.566 216.283 379.168 216.525C378.771 216.766 378.32 216.886 377.815 216.886C377.308 216.886 376.856 216.766 376.458 216.525C376.061 216.283 375.749 215.937 375.52 215.488C375.291 215.038 375.177 214.501 375.177 213.878C375.177 213.253 375.291 212.717 375.52 212.269C375.749 211.819 376.061 211.474 376.458 211.234C376.856 210.992 377.308 210.871 377.815 210.871C378.32 210.871 378.771 210.992 379.168 211.234C379.566 211.474 379.879 211.819 380.108 212.269C380.337 212.717 380.451 213.253 380.451 213.878ZM379.576 213.878C379.576 213.402 379.499 213.001 379.345 212.675C379.192 212.347 378.983 212.099 378.716 211.932C378.451 211.762 378.151 211.677 377.815 211.677C377.478 211.677 377.177 211.762 376.912 211.932C376.647 212.099 376.438 212.347 376.283 212.675C376.131 213.001 376.054 213.402 376.054 213.878C376.054 214.355 376.131 214.757 376.283 215.085C376.438 215.411 376.647 215.658 376.912 215.828C377.177 215.996 377.478 216.079 377.815 216.079C378.151 216.079 378.451 215.996 378.716 215.828C378.983 215.658 379.192 215.411 379.345 215.085C379.499 214.757 379.576 214.355 379.576 213.878ZM386.415 212.855H385.523C385.489 212.664 385.425 212.497 385.332 212.352C385.238 212.207 385.124 212.084 384.989 211.983C384.853 211.882 384.702 211.806 384.534 211.754C384.368 211.703 384.192 211.677 384.005 211.677C383.668 211.677 383.366 211.762 383.099 211.932C382.834 212.101 382.624 212.35 382.47 212.678C382.318 213.005 382.241 213.406 382.241 213.878C382.241 214.355 382.318 214.757 382.47 215.085C382.624 215.412 382.835 215.66 383.102 215.828C383.369 215.996 383.669 216.079 384.002 216.079C384.187 216.079 384.362 216.055 384.528 216.005C384.696 215.954 384.848 215.878 384.983 215.779C385.118 215.68 385.232 215.559 385.326 215.416C385.421 215.271 385.487 215.106 385.523 214.919L386.415 214.922C386.367 215.209 386.275 215.474 386.138 215.716C386.002 215.957 385.828 216.164 385.615 216.34C385.403 216.513 385.161 216.647 384.888 216.743C384.616 216.838 384.319 216.886 383.997 216.886C383.49 216.886 383.038 216.766 382.642 216.525C382.245 216.283 381.933 215.937 381.704 215.488C381.477 215.038 381.364 214.501 381.364 213.878C381.364 213.253 381.478 212.717 381.707 212.269C381.935 211.819 382.248 211.474 382.644 211.234C383.041 210.992 383.492 210.871 383.997 210.871C384.307 210.871 384.597 210.916 384.866 211.005C385.136 211.093 385.379 211.223 385.595 211.394C385.81 211.564 385.988 211.771 386.129 212.017C386.27 212.261 386.365 212.54 386.415 212.855ZM387.183 211.711L387.183 210.951H391.714L391.714 211.711H389.888L389.888 216.806H389.007L389.007 211.711H387.183Z" fill="#838383"/>
<path d="M84.1401 216.806L84.1401 210.951H87.7706L87.7706 211.711H85.0234L85.0234 213.495H87.5104L87.5104 214.253H85.0234L85.0234 216.806H84.1401ZM88.8568 216.806L88.8568 210.951H92.5274L92.5274 211.711H89.7402L89.7402 213.495H92.3358L92.3358 214.253H89.7402L89.7402 216.045H92.5617L92.5617 216.806H88.8568ZM93.7073 216.806L93.7073 210.951H95.8513C96.2667 210.951 96.6107 211.02 96.8833 211.157C97.1558 211.292 97.3597 211.476 97.495 211.709C97.6303 211.939 97.698 212.199 97.698 212.489C97.698 212.733 97.6532 212.939 97.5636 213.106C97.4741 213.272 97.354 213.406 97.2034 213.507C97.0548 213.606 96.8909 213.678 96.7117 213.724L96.7117 213.781C96.9061 213.791 97.0958 213.853 97.2806 213.97C97.4674 214.084 97.6218 214.247 97.7437 214.459C97.8657 214.67 97.9267 214.927 97.9267 215.23C97.9267 215.53 97.8562 215.798 97.7151 216.037C97.576 216.273 97.3607 216.461 97.0691 216.6C96.7775 216.737 96.4049 216.806 95.9513 216.806H93.7073ZM94.5906 216.048H95.8656C96.2887 216.048 96.5917 215.966 96.7746 215.802C96.9576 215.638 97.0491 215.433 97.0491 215.188C97.0491 215.003 97.0024 214.833 96.909 214.679C96.8156 214.524 96.6822 214.401 96.5088 214.31C96.3373 214.218 96.1333 214.173 95.897 214.173H94.5906L94.5906 216.048ZM94.5906 213.484H95.7741C95.9723 213.484 96.1505 213.446 96.3087 213.369C96.4688 213.293 96.5955 213.186 96.6889 213.049C96.7842 212.91 96.8318 212.746 96.8318 212.558C96.8318 212.316 96.747 212.113 96.5774 211.949C96.4078 211.785 96.1476 211.703 95.797 211.703H94.5906L94.5906 213.484Z" fill="#838383"/>
<path d="M191.792 210.951H192.864L194.728 215.502H194.797L196.66 210.951H197.732L197.732 216.806H196.892L196.892 212.569H196.838L195.111 216.797H194.414L192.687 212.566H192.633L192.633 216.806H191.792L191.792 210.951ZM199.511 216.806H198.574L200.68 210.951H201.701L203.808 216.806H202.87L201.215 212.014H201.169L199.511 216.806ZM199.669 214.513H202.71L202.71 215.256H199.669L199.669 214.513ZM203.604 210.951H204.608L206.137 213.612H206.2L207.729 210.951H208.733L206.609 214.507L206.609 216.806H205.728L205.728 214.507L203.604 210.951Z" fill="#838383"/>
<path d="M301.048 216.806H300.111L302.217 210.951H303.238L305.345 216.806H304.407L302.752 212.014H302.706L301.048 216.806ZM301.205 214.513H304.247L304.247 215.256H301.205L301.205 214.513ZM309.955 210.951H310.841L310.841 214.802C310.841 215.211 310.745 215.574 310.553 215.891C310.36 216.205 310.089 216.453 309.741 216.634C309.392 216.813 308.983 216.903 308.514 216.903C308.047 216.903 307.64 216.813 307.291 216.634C306.942 216.453 306.671 216.205 306.479 215.891C306.286 215.574 306.19 215.211 306.19 214.802L306.19 210.951H307.074L307.074 214.73C307.074 214.995 307.132 215.23 307.248 215.436C307.366 215.642 307.533 215.804 307.748 215.922C307.964 216.038 308.219 216.097 308.514 216.097C308.812 216.097 309.068 216.038 309.283 215.922C309.501 215.804 309.666 215.642 309.781 215.436C309.897 215.23 309.955 214.995 309.955 214.73L309.955 210.951ZM316.088 212.801C316.032 212.627 315.958 212.472 315.865 212.335C315.773 212.195 315.664 212.077 315.536 211.98C315.408 211.881 315.262 211.806 315.099 211.754C314.937 211.703 314.758 211.677 314.564 211.677C314.234 211.677 313.937 211.762 313.672 211.932C313.407 212.101 313.198 212.35 313.043 212.678C312.891 213.004 312.814 213.403 312.814 213.875C312.814 214.35 312.892 214.751 313.046 215.079C313.2 215.407 313.412 215.655 313.681 215.825C313.949 215.995 314.255 216.079 314.598 216.079C314.917 216.079 315.194 216.015 315.43 215.885C315.668 215.755 315.852 215.573 315.982 215.336C316.113 215.098 316.179 214.818 316.179 214.496L316.408 214.539H314.733L314.733 213.81H317.034L317.034 214.476C317.034 214.967 316.929 215.394 316.719 215.756C316.512 216.117 316.224 216.395 315.856 216.591C315.49 216.787 315.071 216.886 314.598 216.886C314.068 216.886 313.603 216.764 313.203 216.52C312.805 216.276 312.494 215.93 312.271 215.482C312.048 215.032 311.937 214.499 311.937 213.881C311.937 213.414 312.002 212.995 312.131 212.623C312.261 212.252 312.443 211.936 312.677 211.677C312.914 211.416 313.191 211.217 313.509 211.08C313.829 210.941 314.179 210.871 314.558 210.871C314.875 210.871 315.169 210.918 315.442 211.011C315.716 211.104 315.96 211.237 316.173 211.408C316.389 211.58 316.567 211.784 316.708 212.02C316.849 212.255 316.944 212.515 316.994 212.801H316.088Z" fill="#838383"/>
<path d="M417.559 210.951L417.559 216.806H416.747L413.772 212.512H413.717L413.717 216.806H412.834L412.834 210.951H413.652L416.63 215.25H416.685L416.685 210.951H417.559ZM423.933 213.878C423.933 214.503 423.819 215.041 423.59 215.491C423.362 215.938 423.048 216.283 422.65 216.525C422.254 216.766 421.803 216.886 421.298 216.886C420.791 216.886 420.338 216.766 419.94 216.525C419.543 216.283 419.231 215.937 419.002 215.488C418.774 215.038 418.659 214.501 418.659 213.878C418.659 213.253 418.774 212.717 419.002 212.269C419.231 211.819 419.543 211.474 419.94 211.234C420.338 210.992 420.791 210.871 421.298 210.871C421.803 210.871 422.254 210.992 422.65 211.234C423.048 211.474 423.362 211.819 423.59 212.269C423.819 212.717 423.933 213.253 423.933 213.878ZM423.059 213.878C423.059 213.402 422.982 213.001 422.827 212.675C422.675 212.347 422.465 212.099 422.198 211.932C421.933 211.762 421.633 211.677 421.298 211.677C420.96 211.677 420.659 211.762 420.394 211.932C420.13 212.099 419.92 212.347 419.766 212.675C419.613 213.001 419.537 213.402 419.537 213.878C419.537 214.355 419.613 214.757 419.766 215.085C419.92 215.411 420.13 215.658 420.394 215.828C420.659 215.996 420.96 216.079 421.298 216.079C421.633 216.079 421.933 215.996 422.198 215.828C422.465 215.658 422.675 215.411 422.827 215.085C422.982 214.757 423.059 214.355 423.059 213.878ZM425.256 210.951L426.885 215.719H426.951L428.58 210.951H429.535L427.428 216.806H426.408L424.301 210.951H425.256Z" fill="#838383"/>
<path d="M117.863 211.423H118.935L120.799 215.974H120.867L122.731 211.423H123.803L123.803 217.278H122.963L122.963 213.041H122.908L121.182 217.269H120.484L118.758 213.038H118.703L118.703 217.278H117.863L117.863 211.423ZM125.582 217.278H124.644L126.751 211.423H127.772L129.879 217.278H128.941L127.286 212.487H127.24L125.582 217.278ZM125.739 214.985H128.781L128.781 215.728H125.739L125.739 214.985ZM130.724 217.278L130.724 211.423H132.811C133.264 211.423 133.641 211.501 133.94 211.658C134.241 211.814 134.466 212.03 134.615 212.307C134.763 212.581 134.838 212.898 134.838 213.259C134.838 213.617 134.762 213.932 134.612 214.205C134.463 214.475 134.238 214.686 133.937 214.837C133.638 214.987 133.262 215.062 132.808 215.062H131.227L131.227 214.302H132.728C133.014 214.302 133.246 214.261 133.426 214.179C133.607 214.097 133.739 213.978 133.823 213.822C133.907 213.665 133.949 213.478 133.949 213.259C133.949 213.037 133.906 212.846 133.82 212.684C133.736 212.522 133.604 212.398 133.423 212.312C133.244 212.225 133.008 212.181 132.717 212.181H131.607L131.607 217.278H130.724ZM133.614 214.636L135.061 217.278H134.054L132.637 214.636H133.614Z" fill="#838383"/>
<path d="M231.879 210.951H232.759L232.759 215.102C232.759 215.477 232.685 215.798 232.536 216.065C232.39 216.332 232.183 216.536 231.916 216.677C231.649 216.816 231.337 216.886 230.978 216.886C230.649 216.886 230.352 216.826 230.089 216.705C229.828 216.585 229.622 216.411 229.469 216.182C229.319 215.952 229.243 215.672 229.243 215.342H230.121C230.121 215.504 230.158 215.644 230.232 215.762C230.309 215.88 230.412 215.973 230.544 216.039C230.677 216.104 230.83 216.137 231.001 216.137C231.188 216.137 231.346 216.098 231.476 216.019C231.607 215.939 231.707 215.822 231.776 215.668C231.845 215.513 231.879 215.325 231.879 215.102L231.879 210.951ZM237.81 210.951H238.696L238.696 214.802C238.696 215.211 238.6 215.574 238.407 215.891C238.215 216.205 237.944 216.453 237.596 216.634C237.247 216.813 236.838 216.903 236.369 216.903C235.902 216.903 235.494 216.813 235.146 216.634C234.797 216.453 234.526 216.205 234.334 215.891C234.141 215.574 234.045 215.211 234.045 214.802L234.045 210.951H234.928L234.928 214.73C234.928 214.995 234.987 215.23 235.103 215.436C235.221 215.642 235.388 215.804 235.603 215.922C235.818 216.038 236.074 216.097 236.369 216.097C236.666 216.097 236.923 216.038 237.138 215.922C237.355 215.804 237.521 215.642 237.636 215.436C237.752 215.23 237.81 214.995 237.81 214.73L237.81 210.951ZM244.706 210.951L244.706 216.806H243.894L240.918 212.512H240.864L240.864 216.806H239.98L239.98 210.951H240.798L243.777 215.25H243.831L243.831 210.951H244.706Z" fill="#838383"/>
<path d="M342.077 212.489C342.046 212.218 341.921 212.009 341.7 211.86C341.478 211.709 341.2 211.634 340.865 211.634C340.625 211.634 340.417 211.672 340.242 211.749C340.066 211.823 339.93 211.926 339.833 212.057C339.738 212.187 339.69 212.335 339.69 212.5C339.69 212.64 339.722 212.76 339.787 212.861C339.854 212.962 339.941 213.046 340.047 213.115C340.156 213.182 340.272 213.238 340.396 213.284C340.52 213.328 340.639 213.364 340.753 213.392L341.325 213.541C341.512 213.587 341.703 213.649 341.9 213.727C342.096 213.805 342.278 213.908 342.446 214.035C342.613 214.163 342.749 214.321 342.852 214.51C342.956 214.699 343.009 214.925 343.009 215.188C343.009 215.519 342.923 215.814 342.752 216.071C342.582 216.328 342.335 216.531 342.011 216.68C341.689 216.828 341.299 216.903 340.842 216.903C340.404 216.903 340.024 216.833 339.704 216.694C339.384 216.555 339.133 216.358 338.952 216.102C338.771 215.845 338.671 215.54 338.652 215.188H339.538C339.556 215.399 339.624 215.575 339.744 215.716C339.866 215.856 340.022 215.959 340.21 216.028C340.401 216.095 340.609 216.128 340.836 216.128C341.086 216.128 341.308 216.089 341.502 216.011C341.699 215.931 341.853 215.82 341.965 215.679C342.078 215.536 342.134 215.37 342.134 215.179C342.134 215.006 342.085 214.864 341.985 214.753C341.888 214.642 341.756 214.551 341.588 214.479C341.422 214.406 341.235 214.342 341.025 214.287L340.333 214.098C339.864 213.971 339.493 213.783 339.218 213.535C338.946 213.287 338.809 212.96 338.809 212.552C338.809 212.215 338.901 211.92 339.084 211.669C339.267 211.417 339.515 211.222 339.827 211.082C340.14 210.941 340.492 210.871 340.885 210.871C341.281 210.871 341.631 210.941 341.934 211.08C342.239 211.219 342.479 211.41 342.654 211.654C342.83 211.896 342.921 212.175 342.929 212.489H342.077ZM344.064 216.806L344.064 210.951H347.735L347.735 211.711H344.948L344.948 213.495H347.543L347.543 214.253H344.948L344.948 216.045H347.769L347.769 216.806H344.064ZM348.915 216.806L348.915 210.951H351.002C351.457 210.951 351.834 211.034 352.134 211.2C352.433 211.366 352.657 211.592 352.805 211.88C352.954 212.166 353.028 212.488 353.028 212.846C353.028 213.206 352.953 213.53 352.803 213.818C352.654 214.104 352.429 214.331 352.128 214.499C351.829 214.664 351.452 214.747 350.999 214.747H349.564L349.564 213.998H350.919C351.207 213.998 351.44 213.949 351.619 213.85C351.798 213.749 351.93 213.611 352.014 213.438C352.097 213.265 352.139 213.067 352.139 212.846C352.139 212.625 352.097 212.429 352.014 212.257C351.93 212.086 351.797 211.952 351.616 211.854C351.437 211.757 351.201 211.709 350.907 211.709H349.798L349.798 216.806H348.915Z" fill="#838383"/>
<path d="M450.99 216.806H449.095L449.095 210.951H451.051C451.624 210.951 452.117 211.068 452.528 211.303C452.94 211.535 453.256 211.87 453.475 212.306C453.696 212.741 453.806 213.262 453.806 213.87C453.806 214.48 453.695 215.004 453.472 215.442C453.251 215.88 452.931 216.218 452.511 216.454C452.092 216.688 451.585 216.806 450.99 216.806ZM449.979 216.034H450.942C451.388 216.034 451.759 215.95 452.054 215.782C452.349 215.613 452.57 215.368 452.717 215.047C452.864 214.725 452.937 214.333 452.937 213.87C452.937 213.41 452.864 213.021 452.717 212.7C452.572 212.38 452.356 212.137 452.068 211.972C451.78 211.806 451.423 211.723 450.996 211.723H449.979L449.979 216.034ZM454.905 216.806L454.905 210.951H458.575L458.575 211.711H455.788L455.788 213.495H458.384L458.384 214.253H455.788L455.788 216.045H458.61L458.61 216.806H454.905ZM464.618 212.855H463.726C463.692 212.664 463.628 212.497 463.534 212.352C463.441 212.207 463.327 212.084 463.191 211.983C463.056 211.882 462.904 211.806 462.737 211.754C462.571 211.703 462.395 211.677 462.208 211.677C461.871 211.677 461.569 211.762 461.302 211.932C461.037 212.101 460.827 212.35 460.673 212.678C460.52 213.005 460.444 213.406 460.444 213.878C460.444 214.355 460.52 214.757 460.673 215.085C460.827 215.412 461.038 215.66 461.305 215.828C461.571 215.996 461.872 216.079 462.205 216.079C462.39 216.079 462.565 216.055 462.731 216.005C462.899 215.954 463.05 215.878 463.186 215.779C463.321 215.68 463.435 215.559 463.529 215.416C463.624 215.271 463.69 215.106 463.726 214.919L464.618 214.922C464.57 215.209 464.478 215.474 464.34 215.716C464.205 215.957 464.031 216.164 463.817 216.34C463.606 216.513 463.364 216.647 463.091 216.743C462.819 216.838 462.521 216.886 462.199 216.886C461.692 216.886 461.241 216.766 460.844 216.525C460.448 216.283 460.135 215.937 459.907 215.488C459.68 215.038 459.566 214.501 459.566 213.878C459.566 213.253 459.681 212.717 459.91 212.269C460.138 211.819 460.451 211.474 460.847 211.234C461.244 210.992 461.694 210.871 462.199 210.871C462.51 210.871 462.8 210.916 463.068 211.005C463.339 211.093 463.582 211.223 463.797 211.394C464.013 211.564 464.191 211.771 464.332 212.017C464.473 212.261 464.568 212.54 464.618 212.855Z" fill="#838383"/>
<path d="M52.9001 67.9555C52.9001 65.4856 54.9024 63.4833 57.3723 63.4833V63.4833C59.8422 63.4833 61.8445 65.4856 61.8445 67.9555L61.8445 195.861C61.8445 198.331 59.8422 200.333 57.3723 200.333V200.333C54.9024 200.333 52.9001 198.331 52.9001 195.861L52.9001 67.9555Z" fill="#F2F7FF"/>
<path d="M52.9001 164.556C52.9001 162.086 54.9024 160.083 57.3723 160.083C59.8422 160.083 61.8445 162.086 61.8445 164.556L61.8445 196.756C61.8445 199.226 59.8422 201.228 57.3723 201.228C54.9024 201.228 52.9001 199.226 52.9001 196.756L52.9001 164.556Z" fill="url(#paint0_linear_3911_15958)" fill-opacity="0.8"/>
<path d="M89.5723 67.9555C89.5723 65.4856 91.5746 63.4833 94.0445 63.4833V63.4833C96.5145 63.4833 98.5168 65.4856 98.5168 67.9555L98.5168 195.861C98.5168 198.331 96.5145 200.333 94.0445 200.333V200.333C91.5746 200.333 89.5723 198.331 89.5723 195.861L89.5723 67.9555Z" fill="#F2F7FF"/>
<path d="M89.5723 152.928C89.5723 150.458 91.5746 148.456 94.0445 148.456C96.5145 148.456 98.5168 150.458 98.5168 152.928L98.5168 196.756C98.5168 199.226 96.5145 201.228 94.0445 201.228C91.5746 201.228 89.5723 199.226 89.5723 196.756L89.5723 152.928Z" fill="url(#paint1_linear_3911_15958)" fill-opacity="0.8"/>
<path d="M125.35 67.9555C125.35 65.4856 127.352 63.4833 129.822 63.4833C132.292 63.4833 134.295 65.4856 134.295 67.9555L134.295 195.861C134.295 198.331 132.292 200.333 129.822 200.333C127.352 200.333 125.35 198.331 125.35 195.861L125.35 67.9555Z" fill="#F2F7FF"/>
<path d="M125.35 152.928C125.35 150.458 127.352 148.456 129.822 148.456C132.292 148.456 134.295 150.458 134.295 152.928L134.295 196.756C134.295 199.226 132.292 201.228 129.822 201.228C127.352 201.228 125.35 199.226 125.35 196.756L125.35 152.928Z" fill="url(#paint2_linear_3911_15958)" fill-opacity="0.8"/>
<path d="M161.128 67.9555C161.128 65.4856 163.13 63.4833 165.6 63.4833C168.07 63.4833 170.072 65.4856 170.072 67.9555L170.072 195.861C170.072 198.331 168.07 200.333 165.6 200.333C163.13 200.333 161.128 198.331 161.128 195.861L161.128 67.9555Z" fill="#F2F7FF"/>
<path d="M161.128 121.622C161.128 119.152 163.13 117.15 165.6 117.15C168.07 117.15 170.072 119.152 170.072 121.622L170.072 196.756C170.072 199.226 168.07 201.228 165.6 201.228C163.13 201.228 161.128 199.226 161.128 196.756L161.128 121.622Z" fill="url(#paint3_linear_3911_15958)" fill-opacity="0.8"/>
<path d="M196.906 67.9555C196.906 65.4856 198.908 63.4833 201.378 63.4833C203.848 63.4833 205.85 65.4856 205.85 67.9555L205.85 195.861C205.85 198.331 203.848 200.333 201.378 200.333C198.908 200.333 196.906 198.331 196.906 195.861L196.906 67.9555Z" fill="#F2F7FF"/>
<path d="M196.906 110.889C196.906 108.419 198.908 106.417 201.378 106.417C203.848 106.417 205.85 108.419 205.85 110.889L205.85 196.756C205.85 199.225 203.848 201.228 201.378 201.228C198.908 201.228 196.906 199.225 196.906 196.756L196.906 110.889Z" fill="url(#paint4_linear_3911_15958)" fill-opacity="0.8"/>
<path d="M235.367 67.9555C235.367 65.4856 237.369 63.4833 239.839 63.4833C242.309 63.4833 244.311 65.4856 244.311 67.9555L244.311 195.861C244.311 198.331 242.309 200.333 239.839 200.333C237.369 200.333 235.367 198.331 235.367 195.861L235.367 67.9555Z" fill="#F2F7FF"/>
<path d="M235.367 132.356C235.367 129.886 237.369 127.883 239.839 127.883V127.883C242.309 127.883 244.311 129.886 244.311 132.356L244.311 196.756C244.311 199.225 242.309 201.228 239.839 201.228V201.228C237.369 201.228 235.367 199.225 235.367 196.756L235.367 132.356Z" fill="url(#paint5_linear_3911_15958)" fill-opacity="0.8"/>
<path d="M271.145 67.9555C271.145 65.4856 273.147 63.4833 275.617 63.4833C278.087 63.4833 280.089 65.4856 280.089 67.9555L280.089 195.861C280.089 198.331 278.087 200.333 275.617 200.333C273.147 200.333 271.145 198.331 271.145 195.861L271.145 67.9555Z" fill="#F2F7FF"/>
<path d="M270.082 121.108C270.061 118.683 272.009 116.696 274.435 116.672C276.86 116.648 278.844 118.594 278.866 121.02L279.543 196.472C279.565 198.898 277.617 200.884 275.191 200.908C272.765 200.933 270.782 198.986 270.76 196.561L270.082 121.108Z" fill="url(#paint6_linear_3911_15958)" fill-opacity="0.8"/>
<path d="M306.922 67.9555C306.922 65.4856 308.925 63.4833 311.395 63.4833C313.864 63.4833 315.867 65.4856 315.867 67.9555L315.867 195.861C315.867 198.331 313.864 200.333 311.395 200.333C308.925 200.333 306.922 198.331 306.922 195.861L306.922 67.9555Z" fill="#F2F7FF"/>
<path d="M306.922 164.556C306.922 162.086 308.925 160.083 311.395 160.083C313.864 160.083 315.867 162.086 315.867 164.556L315.867 196.756C315.867 199.226 313.864 201.228 311.395 201.228C308.925 201.228 306.922 199.226 306.922 196.756L306.922 164.556Z" fill="url(#paint7_linear_3911_15958)" fill-opacity="0.8"/>
<path d="M342.7 67.9555C342.7 65.4856 344.702 63.4833 347.172 63.4833C349.642 63.4833 351.645 65.4856 351.645 67.9555L351.645 195.861C351.645 198.331 349.642 200.333 347.172 200.333C344.702 200.333 342.7 198.331 342.7 195.861L342.7 67.9555Z" fill="#F2F7FF"/>
<path d="M342.7 110.889C342.7 108.419 344.702 106.417 347.172 106.417C349.642 106.417 351.645 108.419 351.645 110.889L351.645 196.756C351.645 199.225 349.642 201.228 347.172 201.228C344.702 201.228 342.7 199.225 342.7 196.756L342.7 110.889Z" fill="url(#paint8_linear_3911_15958)" fill-opacity="0.8"/>
<path d="M379.372 67.9555C379.372 65.4856 381.375 63.4833 383.845 63.4833C386.315 63.4833 388.317 65.4856 388.317 67.9555L388.317 195.861C388.317 198.331 386.315 200.333 383.845 200.333C381.375 200.333 379.372 198.331 379.372 195.861L379.372 67.9555Z" fill="#F2F7FF"/>
<path d="M379.372 91.2111C379.372 88.7412 381.375 86.7389 383.845 86.7389V86.7389C386.315 86.7389 388.317 88.7412 388.317 91.2111L388.317 196.756C388.317 199.225 386.315 201.228 383.845 201.228V201.228C381.375 201.228 379.372 199.225 379.372 196.756L379.372 91.2111Z" fill="url(#paint9_linear_3911_15958)" fill-opacity="0.8"/>
<path d="M415.15 67.9555C415.15 65.4856 417.152 63.4833 419.622 63.4833C422.092 63.4833 424.095 65.4856 424.095 67.9555L424.095 195.861C424.095 198.331 422.092 200.333 419.622 200.333C417.152 200.333 415.15 198.331 415.15 195.861L415.15 67.9555Z" fill="#F2F7FF"/>
<path d="M415.15 80.4777C415.15 78.0078 417.152 76.0055 419.622 76.0055C422.092 76.0055 424.095 78.0078 424.095 80.4777L424.095 196.756C424.095 199.225 422.092 201.228 419.622 201.228C417.152 201.228 415.15 199.225 415.15 196.756L415.15 80.4777Z" fill="url(#paint10_linear_3911_15958)" fill-opacity="0.8"/>
<path d="M451.822 67.9555C451.822 65.4855 453.825 63.4833 456.295 63.4833V63.4833C458.765 63.4833 460.767 65.4856 460.767 67.9555L460.767 196.756C460.767 199.225 458.765 201.228 456.295 201.228V201.228C453.825 201.228 451.822 199.225 451.822 196.756L451.822 67.9555Z" fill="url(#paint11_linear_3911_15958)" fill-opacity="0.8"/>
<g opacity="0.5">
<path d="M15.9525 70.4815V69.5684L18.6425 65.3183H19.404V66.6184H18.9397L17.1288 69.4879V69.5374H20.8837V70.4815H15.9525ZM18.9768 71.6578V70.203L18.9892 69.7943V65.3183H20.0727V71.6578H18.9768ZM24.216 71.7786C23.7063 71.7786 23.2688 71.6496 22.9035 71.3916C22.5403 71.1316 22.2607 70.757 22.0646 70.268C21.8706 69.7768 21.7736 69.1856 21.7736 68.4942C21.7757 67.8029 21.8737 67.2148 22.0677 66.7298C22.2638 66.2428 22.5434 65.8713 22.9066 65.6154C23.2719 65.3595 23.7083 65.2316 24.216 65.2316C24.7236 65.2316 25.1601 65.3595 25.5254 65.6154C25.8906 65.8713 26.1703 66.2428 26.3643 66.7298C26.5603 67.2168 26.6583 67.805 26.6583 68.4942C26.6583 69.1876 26.5603 69.7799 26.3643 70.2711C26.1703 70.7601 25.8906 71.1337 25.5254 71.3916C25.1622 71.6496 24.7257 71.7786 24.216 71.7786ZM24.216 70.8097C24.6122 70.8097 24.9249 70.6147 25.1539 70.2246C25.385 69.8325 25.5006 69.2557 25.5006 68.4942C25.5006 67.9907 25.448 67.5676 25.3427 67.2251C25.2375 66.8825 25.0889 66.6246 24.897 66.4512C24.7051 66.2758 24.4781 66.1881 24.216 66.1881C23.8218 66.1881 23.5102 66.3841 23.2811 66.7762C23.0521 67.1663 22.9365 67.7389 22.9344 68.4942C22.9324 68.9998 22.9829 69.4249 23.0861 69.7696C23.1914 70.1142 23.34 70.3742 23.5319 70.5496C23.7238 70.723 23.9518 70.8097 24.216 70.8097ZM30.0301 71.7786C29.5204 71.7786 29.0829 71.6496 28.7176 71.3916C28.3544 71.1316 28.0748 70.757 27.8787 70.268C27.6847 69.7768 27.5878 69.1856 27.5878 68.4942C27.5898 67.8029 27.6878 67.2148 27.8818 66.7298C28.0779 66.2428 28.3575 65.8713 28.7207 65.6154C29.086 65.3595 29.5224 65.2316 30.0301 65.2316C30.5378 65.2316 30.9742 65.3595 31.3395 65.6154C31.7048 65.8713 31.9844 66.2428 32.1784 66.7298C32.3744 67.2168 32.4725 67.805 32.4725 68.4942C32.4725 69.1876 32.3744 69.7799 32.1784 70.2711C31.9844 70.7601 31.7048 71.1337 31.3395 71.3916C30.9763 71.6496 30.5398 71.7786 30.0301 71.7786ZM30.0301 70.8097C30.4263 70.8097 30.739 70.6147 30.968 70.2246C31.1992 69.8325 31.3147 69.2557 31.3147 68.4942C31.3147 67.9907 31.2621 67.5676 31.1569 67.2251C31.0516 66.8825 30.903 66.6246 30.7111 66.4512C30.5192 66.2758 30.2922 66.1881 30.0301 66.1881C29.6359 66.1881 29.3243 66.3841 29.0953 66.7762C28.8662 67.1663 28.7506 67.7389 28.7486 68.4942C28.7465 68.9998 28.7971 69.4249 28.9002 69.7696C29.0055 70.1142 29.1541 70.3742 29.346 70.5496C29.5379 70.723 29.766 70.8097 30.0301 70.8097ZM34.5348 70.1658L34.5317 68.8131H34.7113L36.42 66.9031H37.7294L35.6275 69.2433H35.3954L34.5348 70.1658ZM33.5133 71.6578V65.3183H34.6339V71.6578H33.5133ZM36.4974 71.6578L34.9496 69.4941L35.7049 68.7047L37.8377 71.6578H36.4974Z" fill="black"/>
<path d="M18.47 103.394C18.0243 103.394 17.628 103.318 17.2813 103.165C16.9367 103.012 16.6643 102.8 16.4641 102.527C16.2639 102.255 16.1577 101.94 16.1453 101.583H17.3092C17.3195 101.754 17.3763 101.904 17.4794 102.032C17.5826 102.158 17.7199 102.256 17.8911 102.326C18.0624 102.396 18.2543 102.431 18.4669 102.431C18.6939 102.431 18.8951 102.392 19.0705 102.314C19.2459 102.233 19.3832 102.122 19.4822 101.979C19.5813 101.837 19.6298 101.673 19.6277 101.487C19.6298 101.295 19.5803 101.126 19.4791 100.98C19.378 100.833 19.2315 100.719 19.0396 100.636C18.8497 100.553 18.6207 100.512 18.3524 100.512H17.7921V99.6268H18.3524C18.5732 99.6268 18.7661 99.5886 18.9312 99.5123C19.0984 99.4359 19.2294 99.3286 19.3244 99.1904C19.4193 99.05 19.4657 98.888 19.4637 98.7044C19.4657 98.5248 19.4255 98.369 19.3429 98.2369C19.2625 98.1028 19.1479 97.9986 18.9993 97.9243C18.8528 97.85 18.6805 97.8129 18.4824 97.8129C18.2884 97.8129 18.1089 97.8479 17.9438 97.9181C17.7787 97.9883 17.6456 98.0884 17.5444 98.2184C17.4433 98.3463 17.3897 98.499 17.3835 98.6765H16.2784C16.2866 98.3216 16.3888 98.0099 16.5848 97.7417C16.783 97.4713 17.0471 97.2608 17.3773 97.1102C17.7075 96.9575 18.0779 96.8811 18.4886 96.8811C18.9116 96.8811 19.279 96.9606 19.5906 97.1195C19.9043 97.2763 20.1467 97.4878 20.318 97.754C20.4893 98.0203 20.5749 98.3143 20.5749 98.6363C20.577 98.9933 20.4718 99.2925 20.2592 99.534C20.0487 99.7754 19.7722 99.9333 19.4296 100.008V100.057C19.8754 100.119 20.2169 100.284 20.4542 100.552C20.6936 100.819 20.8123 101.15 20.8102 101.546C20.8102 101.901 20.7091 102.219 20.5068 102.499C20.3067 102.778 20.0301 102.997 19.6772 103.156C19.3264 103.315 18.924 103.394 18.47 103.394ZM24.216 103.428C23.7063 103.428 23.2688 103.299 22.9035 103.041C22.5403 102.781 22.2607 102.407 22.0647 101.917C21.8707 101.426 21.7737 100.835 21.7737 100.144C21.7757 99.4524 21.8738 98.8643 22.0677 98.3793C22.2638 97.8923 22.5434 97.5209 22.9066 97.265C23.2719 97.0091 23.7084 96.8811 24.216 96.8811C24.7237 96.8811 25.1602 97.0091 25.5254 97.265C25.8907 97.5209 26.1703 97.8923 26.3643 98.3793C26.5603 98.8664 26.6584 99.4545 26.6584 100.144C26.6584 100.837 26.5603 101.429 26.3643 101.921C26.1703 102.41 25.8907 102.783 25.5254 103.041C25.1622 103.299 24.7257 103.428 24.216 103.428ZM24.216 102.459C24.6122 102.459 24.9249 102.264 25.154 101.874C25.3851 101.482 25.5007 100.905 25.5007 100.144C25.5007 99.6402 25.448 99.2172 25.3428 98.8746C25.2375 98.532 25.089 98.2741 24.897 98.1007C24.7051 97.9253 24.4781 97.8376 24.216 97.8376C23.8219 97.8376 23.5102 98.0337 23.2812 98.4258C23.0521 98.8158 22.9366 99.3885 22.9345 100.144C22.9324 100.649 22.983 101.074 23.0862 101.419C23.1914 101.764 23.34 102.024 23.5319 102.199C23.7238 102.373 23.9519 102.459 24.216 102.459ZM30.0301 103.428C29.5204 103.428 29.0829 103.299 28.7177 103.041C28.3544 102.781 28.0748 102.407 27.8788 101.917C27.6848 101.426 27.5878 100.835 27.5878 100.144C27.5899 99.4524 27.6879 98.8643 27.8819 98.3793C28.0779 97.8923 28.3575 97.5209 28.7208 97.265C29.086 97.0091 29.5225 96.8811 30.0301 96.8811C30.5378 96.8811 30.9743 97.0091 31.3395 97.265C31.7048 97.5209 31.9844 97.8923 32.1784 98.3793C32.3745 98.8664 32.4725 99.4545 32.4725 100.144C32.4725 100.837 32.3745 101.429 32.1784 101.921C31.9844 102.41 31.7048 102.783 31.3395 103.041C30.9763 103.299 30.5399 103.428 30.0301 103.428ZM30.0301 102.459C30.4264 102.459 30.739 102.264 30.9681 101.874C31.1992 101.482 31.3148 100.905 31.3148 100.144C31.3148 99.6402 31.2622 99.2172 31.1569 98.8746C31.0517 98.532 30.9031 98.2741 30.7112 98.1007C30.5192 97.9253 30.2922 97.8376 30.0301 97.8376C29.636 97.8376 29.3244 98.0337 29.0953 98.4258C28.8662 98.8158 28.7507 99.3885 28.7486 100.144C28.7465 100.649 28.7971 101.074 28.9003 101.419C29.0055 101.764 29.1541 102.024 29.346 102.199C29.538 102.373 29.766 102.459 30.0301 102.459ZM34.5349 101.815L34.5318 100.463H34.7113L36.42 98.5527H37.7294L35.6276 100.893H35.3954L34.5349 101.815ZM33.5134 103.307V96.9678H34.6339V103.307H33.5134ZM36.4974 103.307L34.9497 101.144L35.705 100.354L37.8378 103.307H36.4974Z" fill="black"/>
<path d="M16.4587 134.269V133.439L18.6596 131.282C18.8701 131.069 19.0455 130.88 19.1858 130.715C19.3262 130.55 19.4314 130.39 19.5016 130.235C19.5718 130.081 19.6068 129.916 19.6068 129.74C19.6068 129.54 19.5614 129.369 19.4706 129.226C19.3798 129.082 19.255 128.97 19.0961 128.892C18.9372 128.814 18.7566 128.774 18.5544 128.774C18.3459 128.774 18.1633 128.818 18.0065 128.904C17.8496 128.989 17.7279 129.11 17.6412 129.267C17.5566 129.423 17.5143 129.61 17.5143 129.827H16.4216C16.4216 129.424 16.5134 129.075 16.6971 128.778C16.8807 128.48 17.1335 128.25 17.4555 128.087C17.7795 127.924 18.1509 127.843 18.5698 127.843C18.995 127.843 19.3685 127.922 19.6904 128.081C20.0123 128.24 20.262 128.458 20.4395 128.734C20.6191 129.011 20.7088 129.326 20.7088 129.681C20.7088 129.919 20.6634 130.152 20.5726 130.381C20.4818 130.61 20.3219 130.864 20.0928 131.142C19.8658 131.421 19.547 131.758 19.1363 132.155L18.0436 133.266V133.309H20.8048V134.269H16.4587ZM24.216 134.39C23.7063 134.39 23.2688 134.261 22.9035 134.003C22.5403 133.743 22.2607 133.368 22.0647 132.879C21.8707 132.388 21.7737 131.797 21.7737 131.105C21.7757 130.414 21.8738 129.826 22.0678 129.341C22.2638 128.854 22.5434 128.482 22.9066 128.227C23.2719 127.971 23.7084 127.843 24.216 127.843C24.7237 127.843 25.1602 127.971 25.5254 128.227C25.8907 128.482 26.1703 128.854 26.3643 129.341C26.5604 129.828 26.6584 130.416 26.6584 131.105C26.6584 131.799 26.5604 132.391 26.3643 132.882C26.1703 133.371 25.8907 133.745 25.5254 134.003C25.1622 134.261 24.7258 134.39 24.216 134.39ZM24.216 133.421C24.6123 133.421 24.9249 133.226 25.154 132.836C25.3851 132.444 25.5007 131.867 25.5007 131.105C25.5007 130.602 25.448 130.179 25.3428 129.836C25.2375 129.494 25.089 129.236 24.897 129.062C24.7051 128.887 24.4781 128.799 24.216 128.799C23.8219 128.799 23.5103 128.995 23.2812 129.387C23.0521 129.777 22.9366 130.35 22.9345 131.105C22.9324 131.611 22.983 132.036 23.0862 132.381C23.1914 132.725 23.34 132.985 23.5319 133.161C23.7238 133.334 23.9519 133.421 24.216 133.421ZM30.0302 134.39C29.5204 134.39 29.0829 134.261 28.7177 134.003C28.3545 133.743 28.0748 133.368 27.8788 132.879C27.6848 132.388 27.5878 131.797 27.5878 131.105C27.5899 130.414 27.6879 129.826 27.8819 129.341C28.0779 128.854 28.3576 128.482 28.7208 128.227C29.086 127.971 29.5225 127.843 30.0302 127.843C30.5378 127.843 30.9743 127.971 31.3396 128.227C31.7048 128.482 31.9844 128.854 32.1784 129.341C32.3745 129.828 32.4725 130.416 32.4725 131.105C32.4725 131.799 32.3745 132.391 32.1784 132.882C31.9844 133.371 31.7048 133.745 31.3396 134.003C30.9763 134.261 30.5399 134.39 30.0302 134.39ZM30.0302 133.421C30.4264 133.421 30.739 133.226 30.9681 132.836C31.1992 132.444 31.3148 131.867 31.3148 131.105C31.3148 130.602 31.2622 130.179 31.1569 129.836C31.0517 129.494 30.9031 129.236 30.7112 129.062C30.5192 128.887 30.2922 128.799 30.0302 128.799C29.636 128.799 29.3244 128.995 29.0953 129.387C28.8662 129.777 28.7507 130.35 28.7486 131.105C28.7466 131.611 28.7971 132.036 28.9003 132.381C29.0055 132.725 29.1541 132.985 29.3461 133.161C29.538 133.334 29.766 133.421 30.0302 133.421ZM34.5349 132.777L34.5318 131.424H34.7113L36.42 129.514H37.7294L35.6276 131.854H35.3954L34.5349 132.777ZM33.5134 134.269V127.929H34.6339V134.269H33.5134ZM36.4974 134.269L34.9497 132.105L35.705 131.316L37.8378 134.269H36.4974Z" fill="black"/>
<path d="M20.2631 159.579V165.919H19.1147V160.696H19.0775L17.5948 161.644V160.591L19.1704 159.579H20.2631ZM24.216 166.039C23.7063 166.039 23.2688 165.91 22.9035 165.652C22.5403 165.392 22.2607 165.018 22.0647 164.529C21.8707 164.038 21.7737 163.446 21.7737 162.755C21.7757 162.064 21.8738 161.476 22.0678 160.991C22.2638 160.504 22.5434 160.132 22.9066 159.876C23.2719 159.62 23.7084 159.492 24.216 159.492C24.7237 159.492 25.1602 159.62 25.5254 159.876C25.8907 160.132 26.1703 160.504 26.3643 160.991C26.5604 161.478 26.6584 162.066 26.6584 162.755C26.6584 163.448 26.5604 164.041 26.3643 164.532C26.1703 165.021 25.8907 165.394 25.5254 165.652C25.1622 165.91 24.7258 166.039 24.216 166.039ZM24.216 165.07C24.6123 165.07 24.9249 164.875 25.154 164.485C25.3851 164.093 25.5007 163.516 25.5007 162.755C25.5007 162.251 25.448 161.828 25.3428 161.486C25.2375 161.143 25.089 160.885 24.897 160.712C24.7051 160.537 24.4781 160.449 24.216 160.449C23.8219 160.449 23.5103 160.645 23.2812 161.037C23.0521 161.427 22.9366 162 22.9345 162.755C22.9324 163.261 22.983 163.686 23.0862 164.03C23.1914 164.375 23.34 164.635 23.5319 164.81C23.7239 164.984 23.9519 165.07 24.216 165.07ZM30.0302 166.039C29.5204 166.039 29.0829 165.91 28.7177 165.652C28.3545 165.392 28.0748 165.018 27.8788 164.529C27.6848 164.038 27.5878 163.446 27.5878 162.755C27.5899 162.064 27.6879 161.476 27.8819 160.991C28.0779 160.504 28.3576 160.132 28.7208 159.876C29.086 159.62 29.5225 159.492 30.0302 159.492C30.5378 159.492 30.9743 159.62 31.3396 159.876C31.7048 160.132 31.9845 160.504 32.1784 160.991C32.3745 161.478 32.4725 162.066 32.4725 162.755C32.4725 163.448 32.3745 164.041 32.1784 164.532C31.9845 165.021 31.7048 165.394 31.3396 165.652C30.9763 165.91 30.5399 166.039 30.0302 166.039ZM30.0302 165.07C30.4264 165.07 30.739 164.875 30.9681 164.485C31.1992 164.093 31.3148 163.516 31.3148 162.755C31.3148 162.251 31.2622 161.828 31.1569 161.486C31.0517 161.143 30.9031 160.885 30.7112 160.712C30.5192 160.537 30.2922 160.449 30.0302 160.449C29.636 160.449 29.3244 160.645 29.0953 161.037C28.8663 161.427 28.7507 162 28.7486 162.755C28.7466 163.261 28.7971 163.686 28.9003 164.03C29.0055 164.375 29.1541 164.635 29.3461 164.81C29.538 164.984 29.766 165.07 30.0302 165.07ZM34.5349 164.427L34.5318 163.074H34.7113L36.42 161.164H37.7294L35.6276 163.504H35.3954L34.5349 164.427ZM33.5134 165.919V159.579H34.6339V165.919H33.5134ZM36.4974 165.919L34.9497 163.755L35.705 162.965L37.8378 165.919H36.4974Z" fill="black"/>
<path d="M34.0766 197.513C33.5669 197.513 33.1294 197.384 32.7641 197.126C32.4009 196.866 32.1213 196.492 31.9252 196.003C31.7313 195.511 31.6343 194.92 31.6343 194.229C31.6363 193.538 31.7344 192.949 31.9283 192.464C32.1244 191.977 32.404 191.606 32.7672 191.35C33.1325 191.094 33.569 190.966 34.0766 190.966C34.5843 190.966 35.0207 191.094 35.386 191.35C35.7513 191.606 36.0309 191.977 36.2249 192.464C36.4209 192.951 36.519 193.54 36.519 194.229C36.519 194.922 36.4209 195.515 36.2249 196.006C36.0309 196.495 35.7513 196.868 35.386 197.126C35.0228 197.384 34.5863 197.513 34.0766 197.513ZM34.0766 196.544C34.4728 196.544 34.7855 196.349 35.0145 195.959C35.2457 195.567 35.3612 194.99 35.3612 194.229C35.3612 193.725 35.3086 193.302 35.2034 192.96C35.0981 192.617 34.9495 192.359 34.7576 192.186C34.5657 192.01 34.3387 191.923 34.0766 191.923C33.6825 191.923 33.3708 192.119 33.1418 192.511C32.9127 192.901 32.7971 193.474 32.7951 194.229C32.793 194.734 32.8436 195.16 32.9468 195.504C33.052 195.849 33.2006 196.109 33.3925 196.284C33.5844 196.458 33.8125 196.544 34.0766 196.544Z" fill="black"/>
</g>
<path d="M27.8226 22.6724C27.8226 23.6448 27.6448 24.4808 27.289 25.1804C26.9333 25.8771 26.4456 26.4137 25.826 26.7902C25.2094 27.1637 24.5083 27.3505 23.7227 27.3505C22.9341 27.3505 22.23 27.1637 21.6104 26.7902C20.9938 26.4137 20.5076 25.8756 20.1519 25.176C19.7961 24.4763 19.6183 23.6418 19.6183 22.6724C19.6183 21.7 19.7961 20.8655 20.1519 20.1689C20.5076 19.4692 20.9938 18.9326 21.6104 18.5591C22.23 18.1826 22.9341 17.9944 23.7227 17.9944C24.5083 17.9944 25.2094 18.1826 25.826 18.5591C26.4456 18.9326 26.9333 19.4692 27.289 20.1689C27.6448 20.8655 27.8226 21.7 27.8226 22.6724ZM26.4619 22.6724C26.4619 21.9313 26.3418 21.3072 26.1017 20.8003C25.8646 20.2904 25.5385 19.905 25.1234 19.6441C24.7113 19.3803 24.2444 19.2484 23.7227 19.2484C23.198 19.2484 22.7296 19.3803 22.3175 19.6441C21.9054 19.905 21.5793 20.2904 21.3392 20.8003C21.102 21.3072 20.9834 21.9313 20.9834 22.6724C20.9834 23.4136 21.102 24.0391 21.3392 24.549C21.5793 25.0559 21.9054 25.4413 22.3175 25.7051C22.7296 25.966 23.198 26.0965 23.7227 26.0965C24.2444 26.0965 24.7113 25.966 25.1234 25.7051C25.5385 25.4413 25.8646 25.0559 26.1017 24.549C26.3418 24.0391 26.4619 23.4136 26.4619 22.6724ZM35.1344 20.3956L32.6575 27.226H31.2346L28.7532 20.3956H30.1807L31.9105 25.6518H31.9816L33.707 20.3956H35.1344ZM38.9577 27.3638C38.2847 27.3638 37.7051 27.22 37.219 26.9325C36.7357 26.6419 36.3622 26.2343 36.0984 25.7096C35.8375 25.1819 35.707 24.5638 35.707 23.8553C35.707 23.1556 35.8375 22.539 36.0984 22.0054C36.3622 21.4718 36.7298 21.0553 37.2012 20.7558C37.6755 20.4564 38.2299 20.3067 38.8643 20.3067C39.2497 20.3067 39.6232 20.3705 39.9849 20.4979C40.3465 20.6254 40.6712 20.8255 40.9587 21.0982C41.2463 21.371 41.4731 21.7252 41.6391 22.161C41.8051 22.5939 41.8881 23.1201 41.8881 23.7397V24.211H36.4586V23.2149H40.5852C40.5852 22.8651 40.514 22.5553 40.3717 22.2855C40.2295 22.0128 40.0293 21.7979 39.7714 21.6408C39.5165 21.4836 39.2171 21.4051 38.8732 21.4051C38.4996 21.4051 38.1735 21.497 37.8949 21.6808C37.6192 21.8616 37.4057 22.0988 37.2545 22.3923C37.1063 22.6828 37.0322 22.9985 37.0322 23.3394V24.1176C37.0322 24.5742 37.1122 24.9625 37.2723 25.2827C37.4354 25.6029 37.6622 25.8474 37.9527 26.0164C38.2432 26.1824 38.5826 26.2654 38.971 26.2654C39.223 26.2654 39.4527 26.2299 39.6603 26.1587C39.8678 26.0846 40.0471 25.9749 40.1983 25.8297C40.3495 25.6844 40.4651 25.505 40.5452 25.2916L41.8036 25.5184C41.7028 25.8889 41.522 26.2136 41.2611 26.4922C41.0032 26.7679 40.6786 26.9829 40.2873 27.137C39.8989 27.2882 39.4557 27.3638 38.9577 27.3638ZM43.2256 27.226V20.3956H44.5107V21.4807H44.5819C44.7064 21.1131 44.9258 20.824 45.24 20.6135C45.5572 20.4001 45.9159 20.2934 46.3161 20.2934C46.3991 20.2934 46.497 20.2963 46.6096 20.3023C46.7252 20.3082 46.8157 20.3156 46.8809 20.3245V21.5963C46.8275 21.5815 46.7326 21.5652 46.5963 21.5474C46.4599 21.5266 46.3235 21.5162 46.1872 21.5162C45.8729 21.5162 45.5928 21.5829 45.3467 21.7164C45.1036 21.8468 44.9109 22.0291 44.7686 22.2633C44.6263 22.4945 44.5552 22.7584 44.5552 23.0548V27.226H43.2256ZM49.8203 27.3771C49.3875 27.3771 48.9962 27.2971 48.6464 27.137C48.2966 26.974 48.0194 26.7383 47.8148 26.43C47.6132 26.1217 47.5124 25.7437 47.5124 25.296C47.5124 24.9106 47.5865 24.5934 47.7348 24.3444C47.883 24.0954 48.0831 23.8983 48.3351 23.753C48.5871 23.6077 48.8687 23.498 49.18 23.4239C49.4913 23.3498 49.8085 23.2935 50.1316 23.2549C50.5407 23.2075 50.8727 23.169 51.1277 23.1393C51.3826 23.1067 51.5679 23.0548 51.6835 22.9837C51.7992 22.9125 51.857 22.7969 51.857 22.6368V22.6057C51.857 22.2174 51.7473 21.9165 51.5279 21.703C51.3115 21.4896 50.9884 21.3828 50.5585 21.3828C50.1109 21.3828 49.7581 21.4822 49.5002 21.6808C49.2452 21.8764 49.0688 22.0943 48.971 22.3345L47.7214 22.0499C47.8697 21.6348 48.0861 21.2998 48.3707 21.0449C48.6582 20.787 48.9888 20.6002 49.3623 20.4846C49.7358 20.366 50.1286 20.3067 50.5407 20.3067C50.8134 20.3067 51.1025 20.3393 51.4078 20.4045C51.7161 20.4668 52.0037 20.5824 52.2705 20.7514C52.5403 20.9204 52.7611 21.162 52.9331 21.4762C53.105 21.7875 53.191 22.1922 53.191 22.6902V27.226H51.8925V26.2921H51.8392C51.7532 26.4641 51.6242 26.633 51.4523 26.7991C51.2804 26.9651 51.0595 27.1029 50.7897 27.2126C50.52 27.3223 50.1968 27.3771 49.8203 27.3771ZM50.1094 26.3099C50.477 26.3099 50.7912 26.2373 51.0521 26.092C51.3159 25.9468 51.516 25.757 51.6524 25.5228C51.7917 25.2857 51.8614 25.0322 51.8614 24.7624V23.8819C51.814 23.9294 51.7221 23.9739 51.5857 24.0154C51.4523 24.0539 51.2996 24.088 51.1277 24.1176C50.9557 24.1443 50.7882 24.1695 50.6252 24.1932C50.4621 24.214 50.3258 24.2318 50.2161 24.2466C49.9582 24.2792 49.7225 24.334 49.509 24.4111C49.2986 24.4882 49.1296 24.5994 49.0021 24.7446C48.8776 24.8869 48.8153 25.0767 48.8153 25.3138C48.8153 25.6429 48.9369 25.8919 49.18 26.0609C49.4231 26.2269 49.7329 26.3099 50.1094 26.3099ZM56.1538 18.1189V27.226H54.8242V18.1189H56.1538ZM59.1344 18.1189V27.226H57.8048V18.1189H59.1344ZM69.9248 18.1189H71.3033V24.1087C71.3033 24.7461 71.1536 25.3109 70.8542 25.803C70.5548 26.2921 70.1338 26.6775 69.5913 26.9591C69.0488 27.2378 68.4129 27.3771 67.6836 27.3771C66.9573 27.3771 66.3229 27.2378 65.7804 26.9591C65.2378 26.6775 64.8169 26.2921 64.5175 25.803C64.218 25.3109 64.0683 24.7461 64.0683 24.1087V18.1189H65.4424V23.9976C65.4424 24.4096 65.5328 24.7758 65.7137 25.0959C65.8975 25.4161 66.1569 25.6681 66.4918 25.8519C66.8268 26.0327 67.2241 26.1231 67.6836 26.1231C68.1461 26.1231 68.5448 26.0327 68.8798 25.8519C69.2177 25.6681 69.4757 25.4161 69.6535 25.0959C69.8344 24.7758 69.9248 24.4096 69.9248 23.9976V18.1189ZM78.1748 22.0632L76.9698 22.2767C76.9194 22.1225 76.8393 21.9758 76.7296 21.8364C76.6229 21.6971 76.4776 21.5829 76.2938 21.494C76.11 21.4051 75.8803 21.3606 75.6046 21.3606C75.2281 21.3606 74.9138 21.4451 74.6619 21.6141C74.4099 21.7801 74.2839 21.995 74.2839 22.2589C74.2839 22.4871 74.3684 22.6709 74.5373 22.8103C74.7063 22.9496 74.9791 23.0637 75.3556 23.1527L76.4406 23.4017C77.0691 23.547 77.5375 23.7708 77.8458 24.0732C78.1541 24.3755 78.3082 24.7683 78.3082 25.2516C78.3082 25.6607 78.1897 26.0253 77.9525 26.3455C77.7183 26.6627 77.3907 26.9117 76.9698 27.0925C76.5518 27.2734 76.0671 27.3638 75.5156 27.3638C74.7508 27.3638 74.1268 27.2008 73.6435 26.8747C73.1603 26.5456 72.8639 26.0787 72.7542 25.4739L74.0393 25.2782C74.1193 25.6132 74.2839 25.8667 74.5329 26.0387C74.7819 26.2076 75.1065 26.2921 75.5068 26.2921C75.9425 26.2921 76.2909 26.2017 76.5518 26.0209C76.8126 25.8371 76.9431 25.6132 76.9431 25.3494C76.9431 25.136 76.863 24.9566 76.7029 24.8113C76.5458 24.6661 76.3042 24.5564 75.9781 24.4823L74.8219 24.2288C74.1846 24.0835 73.7132 23.8523 73.4079 23.5351C73.1055 23.2179 72.9543 22.8162 72.9543 22.33C72.9543 21.9268 73.0669 21.5741 73.2922 21.2717C73.5175 20.9693 73.8288 20.7336 74.2261 20.5646C74.6233 20.3927 75.0784 20.3067 75.5912 20.3067C76.3294 20.3067 76.9105 20.4668 77.3344 20.787C77.7583 21.1042 78.0385 21.5296 78.1748 22.0632ZM82.5762 27.3638C81.9032 27.3638 81.3237 27.22 80.8375 26.9325C80.3543 26.6419 79.9807 26.2343 79.7169 25.7096C79.456 25.1819 79.3256 24.5638 79.3256 23.8553C79.3256 23.1556 79.456 22.539 79.7169 22.0054C79.9807 21.4718 80.3483 21.0553 80.8197 20.7558C81.294 20.4564 81.8484 20.3067 82.4828 20.3067C82.8682 20.3067 83.2417 20.3705 83.6034 20.4979C83.9651 20.6254 84.2897 20.8255 84.5772 21.0982C84.8648 21.371 85.0916 21.7252 85.2576 22.161C85.4236 22.5939 85.5066 23.1201 85.5066 23.7397V24.211H80.0771V23.2149H84.2037C84.2037 22.8651 84.1326 22.5553 83.9903 22.2855C83.848 22.0128 83.6479 21.7979 83.3899 21.6408C83.135 21.4836 82.8356 21.4051 82.4917 21.4051C82.1182 21.4051 81.7921 21.497 81.5134 21.6808C81.2377 21.8616 81.0242 22.0988 80.873 22.3923C80.7248 22.6828 80.6507 22.9985 80.6507 23.3394V24.1176C80.6507 24.5742 80.7308 24.9625 80.8908 25.2827C81.0539 25.6029 81.2807 25.8474 81.5712 26.0164C81.8617 26.1824 82.2012 26.2654 82.5895 26.2654C82.8415 26.2654 83.0713 26.2299 83.2788 26.1587C83.4863 26.0846 83.6656 25.9749 83.8168 25.8297C83.968 25.6844 84.0836 25.505 84.1637 25.2916L85.4221 25.5184C85.3213 25.8889 85.1405 26.2136 84.8796 26.4922C84.6217 26.7679 84.2971 26.9829 83.9058 27.137C83.5174 27.2882 83.0742 27.3638 82.5762 27.3638ZM86.8441 27.226V20.3956H88.1292V21.4807H88.2004C88.3249 21.1131 88.5443 20.824 88.8585 20.6135C89.1757 20.4001 89.5344 20.2934 89.9346 20.2934C90.0177 20.2934 90.1155 20.2963 90.2281 20.3023C90.3438 20.3082 90.4342 20.3156 90.4994 20.3245V21.5963C90.446 21.5815 90.3512 21.5652 90.2148 21.5474C90.0784 21.5266 89.9421 21.5162 89.8057 21.5162C89.4914 21.5162 89.2113 21.5829 88.9652 21.7164C88.7221 21.8468 88.5295 22.0291 88.3872 22.2633C88.2449 22.4945 88.1737 22.7584 88.1737 23.0548V27.226H86.8441ZM95.5645 27.226H94.106L97.3833 18.1189H98.9708L102.248 27.226H100.79L98.2148 19.7731H98.1437L95.5645 27.226ZM95.8091 23.6596H100.541V24.8158H95.8091V23.6596ZM106.086 27.3638C105.425 27.3638 104.855 27.2141 104.378 26.9147C103.904 26.6123 103.539 26.1958 103.284 25.6651C103.029 25.1345 102.902 24.5267 102.902 23.8419C102.902 23.1482 103.032 22.536 103.293 22.0054C103.554 21.4718 103.922 21.0553 104.396 20.7558C104.87 20.4564 105.429 20.3067 106.072 20.3067C106.591 20.3067 107.054 20.4031 107.46 20.5958C107.866 20.7855 108.194 21.0523 108.443 21.3962C108.695 21.7401 108.844 22.1418 108.892 22.6013H107.598C107.527 22.2811 107.364 22.0054 107.109 21.7742C106.857 21.5429 106.519 21.4273 106.095 21.4273C105.724 21.4273 105.399 21.5251 105.121 21.7208C104.845 21.9135 104.63 22.1892 104.476 22.5479C104.322 22.9037 104.245 23.3246 104.245 23.8108C104.245 24.3088 104.32 24.7387 104.472 25.1004C104.623 25.4621 104.836 25.7422 105.112 25.9408C105.391 26.1394 105.718 26.2388 106.095 26.2388C106.347 26.2388 106.575 26.1928 106.779 26.1009C106.987 26.006 107.16 25.8712 107.3 25.6962C107.442 25.5213 107.541 25.3109 107.598 25.0648H108.892C108.844 25.5065 108.701 25.9008 108.46 26.2477C108.22 26.5945 107.899 26.8672 107.495 27.0659C107.095 27.2645 106.625 27.3638 106.086 27.3638ZM114.787 29.7873V26.1632H114.707C114.627 26.3084 114.511 26.4744 114.36 26.6612C114.212 26.848 114.008 27.011 113.747 27.1504C113.486 27.2897 113.148 27.3594 112.733 27.3594C112.181 27.3594 111.689 27.2185 111.256 26.9369C110.827 26.6523 110.489 26.2477 110.243 25.7229C109.999 25.1952 109.878 24.5623 109.878 23.8241C109.878 23.086 110.001 22.4545 110.247 21.9298C110.496 21.4051 110.837 21.0034 111.27 20.7247C111.703 20.446 112.193 20.3067 112.742 20.3067C113.166 20.3067 113.507 20.3779 113.764 20.5202C114.025 20.6595 114.227 20.8225 114.369 21.0093C114.514 21.1961 114.627 21.3606 114.707 21.5029H114.818V20.3956H116.117V29.7873H114.787ZM113.026 26.2254C113.409 26.2254 113.732 26.1246 113.996 25.923C114.262 25.7185 114.464 25.4354 114.6 25.0737C114.74 24.712 114.809 24.2911 114.809 23.8108C114.809 23.3365 114.741 22.9214 114.605 22.5657C114.469 22.2099 114.268 21.9328 114.005 21.7341C113.741 21.5355 113.415 21.4362 113.026 21.4362C112.626 21.4362 112.293 21.54 112.026 21.7475C111.759 21.955 111.557 22.2381 111.421 22.5968C111.288 22.9555 111.221 23.3602 111.221 23.8108C111.221 24.2673 111.289 24.6779 111.425 25.0426C111.562 25.4072 111.763 25.6962 112.03 25.9097C112.3 26.1202 112.632 26.2254 113.026 26.2254ZM122.093 24.3933V20.3956H123.427V27.226H122.12V26.0431H122.049C121.892 26.4077 121.64 26.7116 121.293 26.9547C120.949 27.1948 120.521 27.3149 120.008 27.3149C119.569 27.3149 119.181 27.2185 118.843 27.0258C118.508 26.8302 118.244 26.5411 118.051 26.1587C117.862 25.7763 117.767 25.3034 117.767 24.7402V20.3956H119.096V24.5801C119.096 25.0455 119.225 25.4161 119.483 25.6918C119.741 25.9675 120.076 26.1054 120.488 26.1054C120.737 26.1054 120.985 26.0431 121.231 25.9186C121.48 25.7941 121.686 25.6058 121.849 25.3538C122.015 25.1019 122.096 24.7817 122.093 24.3933ZM125.076 27.226V20.3956H126.406V27.226H125.076ZM125.748 19.3418C125.516 19.3418 125.318 19.2647 125.152 19.1105C124.989 18.9534 124.907 18.7666 124.907 18.5502C124.907 18.3308 124.989 18.1441 125.152 17.9899C125.318 17.8328 125.516 17.7542 125.748 17.7542C125.979 17.7542 126.176 17.8328 126.339 17.9899C126.505 18.1441 126.588 18.3308 126.588 18.5502C126.588 18.7666 126.505 18.9534 126.339 19.1105C126.176 19.2647 125.979 19.3418 125.748 19.3418ZM133.175 22.0632L131.97 22.2767C131.92 22.1225 131.84 21.9758 131.73 21.8364C131.623 21.6971 131.478 21.5829 131.294 21.494C131.11 21.4051 130.881 21.3606 130.605 21.3606C130.228 21.3606 129.914 21.4451 129.662 21.6141C129.41 21.7801 129.284 21.995 129.284 22.2589C129.284 22.4871 129.369 22.6709 129.538 22.8103C129.707 22.9496 129.979 23.0637 130.356 23.1527L131.441 23.4017C132.069 23.547 132.538 23.7708 132.846 24.0732C133.154 24.3755 133.308 24.7683 133.308 25.2516C133.308 25.6607 133.19 26.0253 132.953 26.3455C132.719 26.6627 132.391 26.9117 131.97 27.0925C131.552 27.2734 131.067 27.3638 130.516 27.3638C129.751 27.3638 129.127 27.2008 128.644 26.8747C128.161 26.5456 127.864 26.0787 127.754 25.4739L129.04 25.2782C129.12 25.6132 129.284 25.8667 129.533 26.0387C129.782 26.2076 130.107 26.2921 130.507 26.2921C130.943 26.2921 131.291 26.2017 131.552 26.0209C131.813 25.8371 131.943 25.6132 131.943 25.3494C131.943 25.136 131.863 24.9566 131.703 24.8113C131.546 24.6661 131.304 24.5564 130.978 24.4823L129.822 24.2288C129.185 24.0835 128.713 23.8523 128.408 23.5351C128.106 23.2179 127.955 22.8162 127.955 22.33C127.955 21.9268 128.067 21.5741 128.292 21.2717C128.518 20.9693 128.829 20.7336 129.226 20.5646C129.624 20.3927 130.079 20.3067 130.591 20.3067C131.33 20.3067 131.911 20.4668 132.335 20.787C132.759 21.1042 133.039 21.5296 133.175 22.0632ZM134.633 27.226V20.3956H135.962V27.226H134.633ZM135.304 19.3418C135.073 19.3418 134.874 19.2647 134.708 19.1105C134.545 18.9534 134.464 18.7666 134.464 18.5502C134.464 18.3308 134.545 18.1441 134.708 17.9899C134.874 17.8328 135.073 17.7542 135.304 17.7542C135.535 17.7542 135.732 17.8328 135.896 17.9899C136.062 18.1441 136.145 18.3308 136.145 18.5502C136.145 18.7666 136.062 18.9534 135.896 19.1105C135.732 19.2647 135.535 19.3418 135.304 19.3418ZM140.802 20.3956V21.4629H137.071V20.3956H140.802ZM138.071 18.7592H139.401V25.2204C139.401 25.4784 139.439 25.6725 139.516 25.803C139.594 25.9304 139.693 26.0179 139.814 26.0653C139.939 26.1098 140.074 26.132 140.219 26.132C140.326 26.132 140.419 26.1246 140.499 26.1098C140.579 26.095 140.641 26.0831 140.686 26.0742L140.926 27.1726C140.849 27.2022 140.739 27.2319 140.597 27.2615C140.455 27.2941 140.277 27.3119 140.063 27.3149C139.714 27.3208 139.387 27.2586 139.085 27.1281C138.783 26.9977 138.538 26.7961 138.351 26.5234C138.165 26.2506 138.071 25.9082 138.071 25.4961V18.7592ZM142.135 27.226V20.3956H143.464V27.226H142.135ZM142.806 19.3418C142.575 19.3418 142.376 19.2647 142.21 19.1105C142.047 18.9534 141.966 18.7666 141.966 18.5502C141.966 18.3308 142.047 18.1441 142.21 17.9899C142.376 17.8328 142.575 17.7542 142.806 17.7542C143.037 17.7542 143.234 17.8328 143.398 17.9899C143.564 18.1441 143.647 18.3308 143.647 18.5502C143.647 18.7666 143.564 18.9534 143.398 19.1105C143.234 19.2647 143.037 19.3418 142.806 19.3418ZM147.992 27.3638C147.352 27.3638 146.793 27.2171 146.316 26.9236C145.839 26.6301 145.468 26.2195 145.204 25.6918C144.94 25.1641 144.808 24.5475 144.808 23.8419C144.808 23.1334 144.94 22.5138 145.204 21.9832C145.468 21.4525 145.839 21.0404 146.316 20.7469C146.793 20.4535 147.352 20.3067 147.992 20.3067C148.633 20.3067 149.191 20.4535 149.669 20.7469C150.146 21.0404 150.517 21.4525 150.78 21.9832C151.044 22.5138 151.176 23.1334 151.176 23.8419C151.176 24.5475 151.044 25.1641 150.78 25.6918C150.517 26.2195 150.146 26.6301 149.669 26.9236C149.191 27.2171 148.633 27.3638 147.992 27.3638ZM147.997 26.2477C148.412 26.2477 148.756 26.138 149.028 25.9186C149.301 25.6992 149.503 25.4072 149.633 25.0426C149.767 24.6779 149.833 24.2762 149.833 23.8375C149.833 23.4017 149.767 23.0015 149.633 22.6368C149.503 22.2692 149.301 21.9743 149.028 21.7519C148.756 21.5296 148.412 21.4184 147.997 21.4184C147.579 21.4184 147.232 21.5296 146.956 21.7519C146.683 21.9743 146.48 22.2692 146.347 22.6368C146.217 23.0015 146.151 23.4017 146.151 23.8375C146.151 24.2762 146.217 24.6779 146.347 25.0426C146.48 25.4072 146.683 25.6992 146.956 25.9186C147.232 26.138 147.579 26.2477 147.997 26.2477ZM153.852 23.1705V27.226H152.523V20.3956H153.799V21.5074H153.883C154.04 21.1457 154.286 20.8552 154.621 20.6358C154.959 20.4164 155.385 20.3067 155.898 20.3067C156.363 20.3067 156.771 20.4045 157.121 20.6002C157.47 20.7929 157.742 21.0805 157.934 21.4629C158.127 21.8453 158.223 22.3182 158.223 22.8814V27.226H156.894V23.0415C156.894 22.5464 156.765 22.1596 156.507 21.8809C156.249 21.5993 155.895 21.4584 155.444 21.4584C155.136 21.4584 154.862 21.5251 154.621 21.6585C154.384 21.7919 154.196 21.9876 154.057 22.2455C153.92 22.5005 153.852 22.8088 153.852 23.1705Z" fill="#4D4D4D"/>
<line x1="17.1625" y1="38.9755" x2="466.174" y2="38.9754" stroke="#E4E5E7" stroke-width="0.715555"/>
<path d="M415.134 24.2888H413.624L416.372 16.4828H418.118L420.87 24.2888H419.361L417.276 18.0836H417.215L415.134 24.2888ZM415.183 21.2281H419.3V22.364H415.183V21.2281ZM423.849 24.3917C423.39 24.3917 422.978 24.2736 422.614 24.0373C422.251 23.8009 421.964 23.4579 421.753 23.0081C421.542 22.5584 421.437 22.0121 421.437 21.3692C421.437 20.7187 421.543 20.1698 421.757 19.7226C421.973 19.2728 422.264 18.9336 422.63 18.7049C422.996 18.4737 423.403 18.358 423.853 18.358C424.196 18.358 424.478 18.4165 424.699 18.5334C424.92 18.6477 425.096 18.7862 425.225 18.9488C425.355 19.1089 425.455 19.2601 425.527 19.4024H425.584V16.4828H426.967V24.2888H425.61V23.3664H425.527C425.455 23.5087 425.352 23.6599 425.218 23.82C425.083 23.9775 424.905 24.1122 424.684 24.224C424.463 24.3358 424.185 24.3917 423.849 24.3917ZM424.234 23.2597C424.527 23.2597 424.776 23.1809 424.981 23.0234C425.187 22.8633 425.344 22.641 425.45 22.3564C425.557 22.0718 425.61 21.7402 425.61 21.3615C425.61 20.9829 425.557 20.6539 425.45 20.3744C425.346 20.0948 425.191 19.8776 424.985 19.7226C424.782 19.5676 424.532 19.4901 424.234 19.4901C423.927 19.4901 423.67 19.5701 423.464 19.7302C423.259 19.8903 423.104 20.1114 422.999 20.3934C422.895 20.6755 422.843 20.9982 422.843 21.3615C422.843 21.7275 422.895 22.054 422.999 22.3411C423.106 22.6257 423.262 22.8506 423.468 23.0158C423.677 23.1784 423.932 23.2597 424.234 23.2597ZM428.455 24.2888V18.4343H429.774V19.4291H429.843C429.965 19.0937 430.167 18.8319 430.449 18.6439C430.731 18.4533 431.068 18.358 431.459 18.358C431.855 18.358 432.19 18.4546 432.461 18.6477C432.736 18.8383 432.929 19.0988 433.041 19.4291H433.102C433.231 19.1038 433.45 18.8447 433.757 18.6515C434.067 18.4559 434.435 18.358 434.859 18.358C435.398 18.358 435.837 18.5283 436.178 18.8688C436.518 19.2093 436.688 19.7061 436.688 20.3591V24.2888H435.305V20.5726C435.305 20.2092 435.208 19.9436 435.015 19.7759C434.822 19.6057 434.586 19.5206 434.306 19.5206C433.973 19.5206 433.713 19.6247 433.525 19.8331C433.339 20.0389 433.247 20.307 433.247 20.6374V24.2888H431.893V20.5154C431.893 20.213 431.802 19.9716 431.619 19.7912C431.439 19.6108 431.202 19.5206 430.91 19.5206C430.712 19.5206 430.532 19.5714 430.369 19.673C430.206 19.7721 430.077 19.9132 429.98 20.0961C429.884 20.2765 429.835 20.4874 429.835 20.7288V24.2888H428.455ZM438.106 24.2888V18.4343H439.486V24.2888H438.106ZM438.8 17.6034C438.581 17.6034 438.393 17.5309 438.236 17.3861C438.078 17.2387 437.999 17.0621 437.999 16.8563C437.999 16.6479 438.078 16.4713 438.236 16.3265C438.393 16.1791 438.581 16.1054 438.8 16.1054C439.021 16.1054 439.209 16.1791 439.364 16.3265C439.521 16.4713 439.6 16.6479 439.6 16.8563C439.6 17.0621 439.521 17.2387 439.364 17.3861C439.209 17.5309 439.021 17.6034 438.8 17.6034ZM442.302 20.8584V24.2888H440.923V18.4343H442.241V19.4291H442.31C442.445 19.1013 442.659 18.8408 442.954 18.6477C443.251 18.4546 443.619 18.358 444.056 18.358C444.46 18.358 444.812 18.4444 445.112 18.6172C445.414 18.79 445.648 19.0403 445.813 19.3681C445.981 19.6959 446.063 20.0936 446.061 20.5611V24.2888H444.681V20.7746C444.681 20.3832 444.579 20.0771 444.376 19.856C444.175 19.6349 443.897 19.5244 443.541 19.5244C443.3 19.5244 443.085 19.5777 442.897 19.6845C442.712 19.7886 442.565 19.9398 442.459 20.138C442.355 20.3362 442.302 20.5764 442.302 20.8584Z" fill="#0F2552"/>
<path d="M458.28 18.5973L461.701 22.0185L465.123 18.5973L466.174 19.6557L461.701 24.1279L457.229 19.6557L458.28 18.5973Z" fill="#848A95"/>
<defs>
<linearGradient id="paint0_linear_3911_15958" x1="58.9643" y1="180.882" x2="33.326" y2="86.0324" gradientUnits="userSpaceOnUse">
<stop stop-color="#1B59F8"/>
<stop offset="1" stop-color="#1B59F8" stop-opacity="0"/>
</linearGradient>
<linearGradient id="paint1_linear_3911_15958" x1="95.6365" y1="175.132" x2="55.234" y2="58.5957" gradientUnits="userSpaceOnUse">
<stop stop-color="#1B59F8"/>
<stop offset="1" stop-color="#1B59F8" stop-opacity="0"/>
</linearGradient>
<linearGradient id="paint2_linear_3911_15958" x1="131.414" y1="175.132" x2="91.0118" y2="58.5957" gradientUnits="userSpaceOnUse">
<stop stop-color="#1B59F8"/>
<stop offset="1" stop-color="#1B59F8" stop-opacity="0"/>
</linearGradient>
<linearGradient id="paint3_linear_3911_15958" x1="167.192" y1="159.652" x2="79.1662" y2="0.288743" gradientUnits="userSpaceOnUse">
<stop stop-color="#1B59F8"/>
<stop offset="1" stop-color="#1B59F8" stop-opacity="0"/>
</linearGradient>
<linearGradient id="paint4_linear_3911_15958" x1="202.97" y1="154.344" x2="97.718" y2="-14.6335" gradientUnits="userSpaceOnUse">
<stop stop-color="#1B59F8"/>
<stop offset="1" stop-color="#1B59F8" stop-opacity="0"/>
</linearGradient>
<linearGradient id="paint5_linear_3911_15958" x1="241.431" y1="164.96" x2="170.481" y2="17.7127" gradientUnits="userSpaceOnUse">
<stop stop-color="#1B59F8"/>
<stop offset="1" stop-color="#1B59F8" stop-opacity="0"/>
</linearGradient>
<linearGradient id="paint6_linear_3911_15958" x1="276.38" y1="159.238" x2="185.748" y2="2.03479" gradientUnits="userSpaceOnUse">
<stop stop-color="#1B59F8"/>
<stop offset="1" stop-color="#1B59F8" stop-opacity="0"/>
</linearGradient>
<linearGradient id="paint7_linear_3911_15958" x1="312.986" y1="180.882" x2="287.348" y2="86.0324" gradientUnits="userSpaceOnUse">
<stop stop-color="#1B59F8"/>
<stop offset="1" stop-color="#1B59F8" stop-opacity="0"/>
</linearGradient>
<linearGradient id="paint8_linear_3911_15958" x1="348.764" y1="154.344" x2="243.512" y2="-14.6335" gradientUnits="userSpaceOnUse">
<stop stop-color="#1B59F8"/>
<stop offset="1" stop-color="#1B59F8" stop-opacity="0"/>
</linearGradient>
<linearGradient id="paint9_linear_3911_15958" x1="385.437" y1="144.614" x2="249.385" y2="-36.2692" gradientUnits="userSpaceOnUse">
<stop stop-color="#1B59F8"/>
<stop offset="1" stop-color="#1B59F8" stop-opacity="0"/>
</linearGradient>
<linearGradient id="paint10_linear_3911_15958" x1="421.214" y1="139.306" x2="269.237" y2="-45.4323" gradientUnits="userSpaceOnUse">
<stop stop-color="#1B59F8"/>
<stop offset="1" stop-color="#1B59F8" stop-opacity="0"/>
</linearGradient>
<linearGradient id="paint11_linear_3911_15958" x1="457.887" y1="133.114" x2="288.362" y2="-54.22" gradientUnits="userSpaceOnUse">
<stop stop-color="#1B59F8"/>
<stop offset="1" stop-color="#1B59F8" stop-opacity="0"/>
</linearGradient>
</defs>
</svg>
