<svg width="489" height="240" viewBox="0 0 489 240" fill="none" xmlns="http://www.w3.org/2000/svg">
<rect x="0.619463" y="1.31941" width="487.472" height="237.922" rx="17.4417" fill="white" stroke="#EFF0F6" stroke-width="0.894444"/>
<path d="M50.5004 210.951H51.3808L51.3808 215.102C51.3808 215.477 51.3065 215.798 51.1578 216.065C51.0111 216.332 50.8043 216.536 50.5375 216.677C50.2707 216.816 49.9582 216.886 49.5999 216.886C49.2702 216.886 48.9738 216.826 48.7108 216.705C48.4497 216.585 48.243 216.411 48.0905 216.182C47.9399 215.952 47.8647 215.672 47.8647 215.342H48.7423C48.7423 215.504 48.7794 215.644 48.8538 215.762C48.93 215.88 49.0339 215.973 49.1654 216.039C49.2988 216.104 49.4512 216.137 49.6227 216.137C49.8095 216.137 49.9677 216.098 50.0973 216.019C50.2288 215.939 50.3288 215.822 50.3974 215.668C50.466 215.513 50.5004 215.325 50.5004 215.102L50.5004 210.951ZM53.1611 216.806H52.2234L54.3302 210.951H55.3508L57.4576 216.806H56.52L54.8648 212.014H54.8191L53.1611 216.806ZM53.3183 214.513H56.3599L56.3599 215.256H53.3183L53.3183 214.513ZM63.0284 210.951L63.0284 216.806H62.2166L59.2407 212.512H59.1864L59.1864 216.806H58.3031L58.3031 210.951H59.1207L62.0994 215.25H62.1537L62.1537 210.951H63.0284Z" fill="#838383"/>
<path d="M156.559 216.806H155.621L157.728 210.951H158.749L160.856 216.806H159.918L158.263 212.014H158.217L156.559 216.806ZM156.716 214.513H159.758L159.758 215.256H156.716L156.716 214.513ZM161.701 216.806L161.701 210.951H163.788C164.243 210.951 164.621 211.034 164.92 211.2C165.219 211.366 165.443 211.592 165.592 211.88C165.74 212.166 165.815 212.488 165.815 212.846C165.815 213.206 165.739 213.53 165.589 213.818C165.44 214.104 165.215 214.331 164.914 214.499C164.615 214.664 164.238 214.747 163.785 214.747H162.35L162.35 213.998H163.705C163.993 213.998 164.226 213.949 164.405 213.85C164.584 213.749 164.716 213.611 164.8 213.438C164.884 213.265 164.926 213.067 164.926 212.846C164.926 212.625 164.884 212.429 164.8 212.257C164.716 212.086 164.583 211.952 164.402 211.854C164.223 211.757 163.987 211.709 163.693 211.709H162.584L162.584 216.806H161.701ZM166.85 216.806L166.85 210.951H168.937C169.391 210.951 169.767 211.029 170.066 211.185C170.367 211.342 170.592 211.558 170.741 211.834C170.889 212.109 170.964 212.426 170.964 212.786C170.964 213.145 170.888 213.46 170.738 213.732C170.589 214.003 170.364 214.214 170.063 214.364C169.764 214.515 169.388 214.59 168.934 214.59H167.353L167.353 213.83H168.854C169.14 213.83 169.372 213.789 169.552 213.707C169.733 213.625 169.865 213.506 169.949 213.349C170.033 213.193 170.075 213.005 170.075 212.786C170.075 212.565 170.032 212.374 169.946 212.212C169.862 212.05 169.73 211.926 169.549 211.84C169.37 211.752 169.134 211.709 168.843 211.709H167.733L167.733 216.806H166.85ZM169.74 214.164L171.187 216.806H170.18L168.763 214.164H169.74Z" fill="#838383"/>
<path d="M266.647 210.951H267.528L267.528 215.102C267.528 215.477 267.453 215.798 267.305 216.065C267.158 216.332 266.951 216.536 266.684 216.677C266.417 216.816 266.105 216.886 265.747 216.886C265.417 216.886 265.121 216.826 264.858 216.705C264.597 216.585 264.39 216.411 264.237 216.182C264.087 215.952 264.011 215.672 264.011 215.342H264.889C264.889 215.504 264.926 215.644 265.001 215.762C265.077 215.88 265.181 215.973 265.312 216.039C265.446 216.104 265.598 216.137 265.77 216.137C265.956 216.137 266.114 216.098 266.244 216.019C266.376 215.939 266.476 215.822 266.544 215.668C266.613 215.513 266.647 215.325 266.647 215.102L266.647 210.951ZM272.578 210.951H273.464L273.464 214.802C273.464 215.211 273.368 215.574 273.176 215.891C272.983 216.205 272.713 216.453 272.364 216.634C272.015 216.813 271.606 216.903 271.137 216.903C270.67 216.903 270.263 216.813 269.914 216.634C269.565 216.453 269.294 216.205 269.102 215.891C268.91 215.574 268.813 215.211 268.813 214.802L268.813 210.951H269.697L269.697 214.73C269.697 214.995 269.755 215.23 269.871 215.436C269.989 215.642 270.156 215.804 270.371 215.922C270.587 216.038 270.842 216.097 271.137 216.097C271.435 216.097 271.691 216.038 271.906 215.922C272.124 215.804 272.289 215.642 272.404 215.436C272.52 215.23 272.578 214.995 272.578 214.73L272.578 210.951ZM274.749 216.806L274.749 210.951H275.632L275.632 216.045H278.285L278.285 216.806H274.749Z" fill="#838383"/>
<path d="M380.495 213.878C380.495 214.503 380.381 215.041 380.152 215.491C379.924 215.938 379.61 216.283 379.212 216.525C378.815 216.766 378.365 216.886 377.86 216.886C377.353 216.886 376.9 216.766 376.502 216.525C376.105 216.283 375.793 215.937 375.564 215.488C375.336 215.038 375.221 214.501 375.221 213.878C375.221 213.253 375.336 212.717 375.564 212.269C375.793 211.819 376.105 211.474 376.502 211.234C376.9 210.992 377.353 210.871 377.86 210.871C378.365 210.871 378.815 210.992 379.212 211.234C379.61 211.474 379.924 211.819 380.152 212.269C380.381 212.717 380.495 213.253 380.495 213.878ZM379.621 213.878C379.621 213.402 379.543 213.001 379.389 212.675C379.237 212.347 379.027 212.099 378.76 211.932C378.495 211.762 378.195 211.677 377.86 211.677C377.522 211.677 377.221 211.762 376.956 211.932C376.691 212.099 376.482 212.347 376.327 212.675C376.175 213.001 376.099 213.402 376.099 213.878C376.099 214.355 376.175 214.757 376.327 215.085C376.482 215.411 376.691 215.658 376.956 215.828C377.221 215.996 377.522 216.079 377.86 216.079C378.195 216.079 378.495 215.996 378.76 215.828C379.027 215.658 379.237 215.411 379.389 215.085C379.543 214.757 379.621 214.355 379.621 213.878ZM386.459 212.855H385.567C385.533 212.664 385.469 212.497 385.376 212.352C385.282 212.207 385.168 212.084 385.033 211.983C384.898 211.882 384.746 211.806 384.578 211.754C384.412 211.703 384.236 211.677 384.049 211.677C383.712 211.677 383.41 211.762 383.143 211.932C382.878 212.101 382.669 212.35 382.514 212.678C382.362 213.005 382.286 213.406 382.286 213.878C382.286 214.355 382.362 214.757 382.514 215.085C382.669 215.412 382.879 215.66 383.146 215.828C383.413 215.996 383.713 216.079 384.047 216.079C384.231 216.079 384.407 216.055 384.573 216.005C384.74 215.954 384.892 215.878 385.027 215.779C385.162 215.68 385.277 215.559 385.37 215.416C385.465 215.271 385.531 215.106 385.567 214.919L386.459 214.922C386.412 215.209 386.319 215.474 386.182 215.716C386.047 215.957 385.872 216.164 385.659 216.34C385.447 216.513 385.205 216.647 384.933 216.743C384.66 216.838 384.363 216.886 384.041 216.886C383.534 216.886 383.082 216.766 382.686 216.525C382.289 216.283 381.977 215.937 381.748 215.488C381.521 215.038 381.408 214.501 381.408 213.878C381.408 213.253 381.522 212.717 381.751 212.269C381.98 211.819 382.292 211.474 382.689 211.234C383.085 210.992 383.536 210.871 384.041 210.871C384.351 210.871 384.641 210.916 384.91 211.005C385.181 211.093 385.423 211.223 385.639 211.394C385.854 211.564 386.032 211.771 386.173 212.017C386.314 212.261 386.41 212.54 386.459 212.855ZM387.228 211.711L387.228 210.951H391.759L391.759 211.711H389.932L389.932 216.806H389.051L389.051 211.711H387.228Z" fill="#838383"/>
<path d="M84.1843 216.806L84.1843 210.951H87.8148L87.8148 211.711H85.0676L85.0676 213.495H87.5547L87.5547 214.253H85.0676L85.0676 216.806H84.1843ZM88.9011 216.806L88.9011 210.951H92.5716L92.5716 211.711H89.7844L89.7844 213.495H92.3801L92.3801 214.253H89.7844L89.7844 216.045H92.6059L92.6059 216.806H88.9011ZM93.7516 216.806L93.7516 210.951H95.8956C96.311 210.951 96.655 211.02 96.9275 211.157C97.2001 211.292 97.404 211.476 97.5393 211.709C97.6746 211.939 97.7422 212.199 97.7422 212.489C97.7422 212.733 97.6975 212.939 97.6079 213.106C97.5183 213.272 97.3983 213.406 97.2477 213.507C97.0991 213.606 96.9352 213.678 96.756 213.724L96.756 213.781C96.9504 213.791 97.14 213.853 97.3249 213.97C97.5117 214.084 97.666 214.247 97.788 214.459C97.91 214.67 97.9709 214.927 97.9709 215.23C97.9709 215.53 97.9004 215.798 97.7594 216.037C97.6203 216.273 97.4049 216.461 97.1133 216.6C96.8218 216.737 96.4492 216.806 95.9956 216.806H93.7516ZM94.6349 216.048H95.9098C96.3329 216.048 96.6359 215.966 96.8189 215.802C97.0019 215.638 97.0933 215.433 97.0933 215.188C97.0933 215.003 97.0466 214.833 96.9533 214.679C96.8599 214.524 96.7265 214.401 96.553 214.31C96.3815 214.218 96.1776 214.173 95.9413 214.173H94.6349L94.6349 216.048ZM94.6349 213.484H95.8184C96.0166 213.484 96.1948 213.446 96.3529 213.369C96.513 213.293 96.6398 213.186 96.7331 213.049C96.8284 212.91 96.8761 212.746 96.8761 212.558C96.8761 212.316 96.7913 212.113 96.6217 211.949C96.452 211.785 96.1919 211.703 95.8412 211.703H94.6349L94.6349 213.484Z" fill="#838383"/>
<path d="M191.836 210.951H192.908L194.772 215.502H194.841L196.705 210.951H197.777L197.777 216.806H196.936L196.936 212.569H196.882L195.155 216.797H194.458L192.731 212.566H192.677L192.677 216.806H191.836L191.836 210.951ZM199.556 216.806H198.618L200.725 210.951H201.745L203.852 216.806H202.915L201.259 212.014H201.214L199.556 216.806ZM199.713 214.513H202.754L202.754 215.256H199.713L199.713 214.513ZM203.648 210.951H204.652L206.181 213.612H206.244L207.774 210.951H208.777L206.653 214.507L206.653 216.806H205.772L205.772 214.507L203.648 210.951Z" fill="#838383"/>
<path d="M301.092 216.806H300.155L302.262 210.951H303.282L305.389 216.806H304.451L302.796 212.014H302.751L301.092 216.806ZM301.25 214.513H304.291L304.291 215.256H301.25L301.25 214.513ZM309.999 210.951H310.886L310.886 214.802C310.886 215.211 310.789 215.574 310.597 215.891C310.404 216.205 310.134 216.453 309.785 216.634C309.436 216.813 309.027 216.903 308.559 216.903C308.092 216.903 307.684 216.813 307.335 216.634C306.986 216.453 306.716 216.205 306.523 215.891C306.331 215.574 306.235 215.211 306.235 214.802L306.235 210.951H307.118L307.118 214.73C307.118 214.995 307.176 215.23 307.292 215.436C307.41 215.642 307.577 215.804 307.792 215.922C308.008 216.038 308.263 216.097 308.559 216.097C308.856 216.097 309.112 216.038 309.328 215.922C309.545 215.804 309.711 215.642 309.825 215.436C309.941 215.23 309.999 214.995 309.999 214.73L309.999 210.951ZM316.132 212.801C316.077 212.627 316.002 212.472 315.909 212.335C315.817 212.195 315.708 212.077 315.58 211.98C315.453 211.881 315.307 211.806 315.143 211.754C314.981 211.703 314.803 211.677 314.608 211.677C314.279 211.677 313.981 211.762 313.716 211.932C313.451 212.101 313.242 212.35 313.087 212.678C312.935 213.004 312.859 213.403 312.859 213.875C312.859 214.35 312.936 214.751 313.09 215.079C313.245 215.407 313.456 215.655 313.725 215.825C313.994 215.995 314.3 216.079 314.643 216.079C314.961 216.079 315.238 216.015 315.474 215.885C315.713 215.755 315.897 215.573 316.026 215.336C316.158 215.098 316.223 214.818 316.223 214.496L316.452 214.539H314.777L314.777 213.81H317.078L317.078 214.476C317.078 214.967 316.973 215.394 316.764 215.756C316.556 216.117 316.268 216.395 315.9 216.591C315.534 216.787 315.115 216.886 314.643 216.886C314.113 216.886 313.648 216.764 313.248 216.52C312.849 216.276 312.539 215.93 312.316 215.482C312.093 215.032 311.981 214.499 311.981 213.881C311.981 213.414 312.046 212.995 312.176 212.623C312.305 212.252 312.487 211.936 312.722 211.677C312.958 211.416 313.235 211.217 313.553 211.08C313.874 210.941 314.223 210.871 314.603 210.871C314.919 210.871 315.213 210.918 315.486 211.011C315.76 211.104 316.004 211.237 316.218 211.408C316.433 211.58 316.611 211.784 316.752 212.02C316.893 212.255 316.989 212.515 317.038 212.801H316.132Z" fill="#838383"/>
<path d="M417.604 210.951L417.604 216.806H416.792L413.816 212.512H413.762L413.762 216.806H412.878L412.878 210.951H413.696L416.675 215.25H416.729L416.729 210.951H417.604ZM423.978 213.878C423.978 214.503 423.863 215.041 423.635 215.491C423.406 215.938 423.092 216.283 422.694 216.525C422.298 216.766 421.847 216.886 421.342 216.886C420.835 216.886 420.382 216.766 419.984 216.525C419.588 216.283 419.275 215.937 419.047 215.488C418.818 215.038 418.703 214.501 418.703 213.878C418.703 213.253 418.818 212.717 419.047 212.269C419.275 211.819 419.588 211.474 419.984 211.234C420.382 210.992 420.835 210.871 421.342 210.871C421.847 210.871 422.298 210.992 422.694 211.234C423.092 211.474 423.406 211.819 423.635 212.269C423.863 212.717 423.978 213.253 423.978 213.878ZM423.103 213.878C423.103 213.402 423.026 213.001 422.871 212.675C422.719 212.347 422.509 212.099 422.243 211.932C421.978 211.762 421.677 211.677 421.342 211.677C421.005 211.677 420.704 211.762 420.439 211.932C420.174 212.099 419.964 212.347 419.81 212.675C419.657 213.001 419.581 213.402 419.581 213.878C419.581 214.355 419.657 214.757 419.81 215.085C419.964 215.411 420.174 215.658 420.439 215.828C420.704 215.996 421.005 216.079 421.342 216.079C421.677 216.079 421.978 215.996 422.243 215.828C422.509 215.658 422.719 215.411 422.871 215.085C423.026 214.757 423.103 214.355 423.103 213.878ZM425.3 210.951L426.929 215.719H426.995L428.624 210.951H429.579L427.472 216.806H426.452L424.345 210.951H425.3Z" fill="#838383"/>
<path d="M117.907 211.423H118.979L120.843 215.974H120.912L122.776 211.423H123.848L123.848 217.278H123.007L123.007 213.041H122.953L121.226 217.269H120.529L118.802 213.038H118.748L118.748 217.278H117.907L117.907 211.423ZM125.626 217.278H124.689L126.796 211.423H127.816L129.923 217.278H128.985L127.33 212.487H127.284L125.626 217.278ZM125.784 214.985H128.825L128.825 215.728H125.784L125.784 214.985ZM130.768 217.278L130.768 211.423H132.855C133.309 211.423 133.685 211.501 133.984 211.658C134.285 211.814 134.51 212.03 134.659 212.307C134.808 212.581 134.882 212.898 134.882 213.259C134.882 213.617 134.807 213.932 134.656 214.205C134.507 214.475 134.283 214.686 133.981 214.837C133.682 214.987 133.306 215.062 132.852 215.062H131.271L131.271 214.302H132.772C133.058 214.302 133.291 214.261 133.47 214.179C133.651 214.097 133.783 213.978 133.867 213.822C133.951 213.665 133.993 213.478 133.993 213.259C133.993 213.037 133.95 212.846 133.864 212.684C133.78 212.522 133.648 212.398 133.467 212.312C133.288 212.225 133.052 212.181 132.761 212.181H131.652L131.652 217.278H130.768ZM133.658 214.636L135.105 217.278H134.099L132.681 214.636H133.658Z" fill="#838383"/>
<path d="M231.923 210.951H232.804L232.804 215.102C232.804 215.477 232.729 215.798 232.581 216.065C232.434 216.332 232.227 216.536 231.96 216.677C231.694 216.816 231.381 216.886 231.023 216.886C230.693 216.886 230.397 216.826 230.134 216.705C229.873 216.585 229.666 216.411 229.513 216.182C229.363 215.952 229.288 215.672 229.288 215.342H230.165C230.165 215.504 230.202 215.644 230.277 215.762C230.353 215.88 230.457 215.973 230.588 216.039C230.722 216.104 230.874 216.137 231.046 216.137C231.232 216.137 231.391 216.098 231.52 216.019C231.652 215.939 231.752 215.822 231.82 215.668C231.889 215.513 231.923 215.325 231.923 215.102L231.923 210.951ZM237.854 210.951H238.74L238.74 214.802C238.74 215.211 238.644 215.574 238.452 215.891C238.259 216.205 237.989 216.453 237.64 216.634C237.291 216.813 236.882 216.903 236.413 216.903C235.947 216.903 235.539 216.813 235.19 216.634C234.841 216.453 234.571 216.205 234.378 215.891C234.186 215.574 234.089 215.211 234.089 214.802L234.089 210.951H234.973L234.973 214.73C234.973 214.995 235.031 215.23 235.147 215.436C235.265 215.642 235.432 215.804 235.647 215.922C235.863 216.038 236.118 216.097 236.413 216.097C236.711 216.097 236.967 216.038 237.182 215.922C237.4 215.804 237.565 215.642 237.68 215.436C237.796 215.23 237.854 214.995 237.854 214.73L237.854 210.951ZM244.75 210.951L244.75 216.806H243.938L240.962 212.512H240.908L240.908 216.806H240.025L240.025 210.951H240.842L243.821 215.25H243.875L243.875 210.951H244.75Z" fill="#838383"/>
<path d="M342.121 212.489C342.091 212.218 341.965 212.009 341.744 211.86C341.523 211.709 341.245 211.634 340.909 211.634C340.669 211.634 340.461 211.672 340.286 211.749C340.111 211.823 339.974 211.926 339.877 212.057C339.782 212.187 339.734 212.335 339.734 212.5C339.734 212.64 339.767 212.76 339.831 212.861C339.898 212.962 339.985 213.046 340.092 213.115C340.2 213.182 340.316 213.238 340.44 213.284C340.564 213.328 340.683 213.364 340.798 213.392L341.369 213.541C341.556 213.587 341.748 213.649 341.944 213.727C342.14 213.805 342.322 213.908 342.49 214.035C342.658 214.163 342.793 214.321 342.896 214.51C343.001 214.699 343.053 214.925 343.053 215.188C343.053 215.519 342.967 215.814 342.796 216.071C342.626 216.328 342.379 216.531 342.055 216.68C341.733 216.828 341.344 216.903 340.886 216.903C340.448 216.903 340.069 216.833 339.748 216.694C339.428 216.555 339.178 216.358 338.997 216.102C338.816 215.845 338.716 215.54 338.696 215.188H339.583C339.6 215.399 339.668 215.575 339.788 215.716C339.91 215.856 340.066 215.959 340.254 216.028C340.445 216.095 340.654 216.128 340.881 216.128C341.13 216.128 341.352 216.089 341.547 216.011C341.743 215.931 341.897 215.82 342.01 215.679C342.122 215.536 342.178 215.37 342.178 215.179C342.178 215.006 342.129 214.864 342.03 214.753C341.932 214.642 341.8 214.551 341.632 214.479C341.467 214.406 341.279 214.342 341.069 214.287L340.377 214.098C339.909 213.971 339.537 213.783 339.263 213.535C338.99 213.287 338.854 212.96 338.854 212.552C338.854 212.215 338.945 211.92 339.128 211.669C339.311 211.417 339.559 211.222 339.871 211.082C340.184 210.941 340.537 210.871 340.929 210.871C341.326 210.871 341.675 210.941 341.978 211.08C342.283 211.219 342.523 211.41 342.699 211.654C342.874 211.896 342.965 212.175 342.973 212.489H342.121ZM344.109 216.806L344.109 210.951H347.779L347.779 211.711H344.992L344.992 213.495H347.588L347.588 214.253H344.992L344.992 216.045H347.813L347.813 216.806H344.109ZM348.959 216.806L348.959 210.951H351.046C351.501 210.951 351.879 211.034 352.178 211.2C352.477 211.366 352.701 211.592 352.85 211.88C352.998 212.166 353.073 212.488 353.073 212.846C353.073 213.206 352.997 213.53 352.847 213.818C352.698 214.104 352.473 214.331 352.172 214.499C351.873 214.664 351.497 214.747 351.043 214.747H349.608L349.608 213.998H350.963C351.251 213.998 351.484 213.949 351.663 213.85C351.843 213.749 351.974 213.611 352.058 213.438C352.142 213.265 352.184 213.067 352.184 212.846C352.184 212.625 352.142 212.429 352.058 212.257C351.974 212.086 351.842 211.952 351.661 211.854C351.481 211.757 351.245 211.709 350.952 211.709H349.842L349.842 216.806H348.959Z" fill="#838383"/>
<path d="M451.035 216.806H449.139L449.139 210.951H451.095C451.668 210.951 452.161 211.068 452.573 211.303C452.984 211.535 453.3 211.87 453.519 212.306C453.74 212.741 453.851 213.262 453.851 213.87C453.851 214.48 453.739 215.004 453.516 215.442C453.295 215.88 452.975 216.218 452.556 216.454C452.136 216.688 451.629 216.806 451.035 216.806ZM450.023 216.034H450.986C451.432 216.034 451.803 215.95 452.098 215.782C452.394 215.613 452.615 215.368 452.761 215.047C452.908 214.725 452.981 214.333 452.981 213.87C452.981 213.41 452.908 213.021 452.761 212.7C452.617 212.38 452.4 212.137 452.112 211.972C451.825 211.806 451.467 211.723 451.04 211.723H450.023L450.023 216.034ZM454.949 216.806L454.949 210.951H458.619L458.619 211.711H455.832L455.832 213.495H458.428L458.428 214.253H455.832L455.832 216.045H458.654L458.654 216.806H454.949ZM464.662 212.855H463.77C463.736 212.664 463.672 212.497 463.579 212.352C463.485 212.207 463.371 212.084 463.236 211.983C463.1 211.882 462.949 211.806 462.781 211.754C462.615 211.703 462.439 211.677 462.252 211.677C461.915 211.677 461.613 211.762 461.346 211.932C461.081 212.101 460.871 212.35 460.717 212.678C460.565 213.005 460.488 213.406 460.488 213.878C460.488 214.355 460.565 214.757 460.717 215.085C460.871 215.412 461.082 215.66 461.349 215.828C461.616 215.996 461.916 216.079 462.249 216.079C462.434 216.079 462.609 216.055 462.775 216.005C462.943 215.954 463.095 215.878 463.23 215.779C463.365 215.68 463.479 215.559 463.573 215.416C463.668 215.271 463.734 215.106 463.77 214.919L464.662 214.922C464.614 215.209 464.522 215.474 464.385 215.716C464.249 215.957 464.075 216.164 463.862 216.34C463.65 216.513 463.408 216.647 463.135 216.743C462.863 216.838 462.566 216.886 462.244 216.886C461.737 216.886 461.285 216.766 460.889 216.525C460.492 216.283 460.18 215.937 459.951 215.488C459.724 215.038 459.611 214.501 459.611 213.878C459.611 213.253 459.725 212.717 459.954 212.269C460.182 211.819 460.495 211.474 460.891 211.234C461.288 210.992 461.739 210.871 462.244 210.871C462.554 210.871 462.844 210.916 463.113 211.005C463.383 211.093 463.626 211.223 463.842 211.394C464.057 211.564 464.235 211.771 464.376 212.017C464.517 212.261 464.612 212.54 464.662 212.855Z" fill="#838383"/>
<g opacity="0.5">
<path d="M15.9967 70.4815V69.5684L18.6867 65.3183H19.4482V66.6184H18.9839L17.173 69.4879V69.5374H20.9279V70.4815H15.9967ZM19.021 71.6578V70.203L19.0334 69.7943V65.3183H20.1168V71.6578H19.021ZM24.2602 71.7786C23.7504 71.7786 23.3129 71.6496 22.9477 71.3916C22.5845 71.1316 22.3048 70.757 22.1088 70.268C21.9148 69.7768 21.8178 69.1856 21.8178 68.4942C21.8199 67.8029 21.9179 67.2148 22.1119 66.7298C22.3079 66.2428 22.5876 65.8713 22.9508 65.6154C23.316 65.3595 23.7525 65.2316 24.2602 65.2316C24.7678 65.2316 25.2043 65.3595 25.5696 65.6154C25.9348 65.8713 26.2145 66.2428 26.4084 66.7298C26.6045 67.2168 26.7025 67.805 26.7025 68.4942C26.7025 69.1876 26.6045 69.7799 26.4084 70.2711C26.2145 70.7601 25.9348 71.1337 25.5696 71.3916C25.2064 71.6496 24.7699 71.7786 24.2602 71.7786ZM24.2602 70.8097C24.6564 70.8097 24.969 70.6147 25.1981 70.2246C25.4292 69.8325 25.5448 69.2557 25.5448 68.4942C25.5448 67.9907 25.4922 67.5676 25.3869 67.2251C25.2817 66.8825 25.1331 66.6246 24.9412 66.4512C24.7493 66.2758 24.5223 66.1881 24.2602 66.1881C23.866 66.1881 23.5544 66.3841 23.3253 66.7762C23.0963 67.1663 22.9807 67.7389 22.9786 68.4942C22.9766 68.9998 23.0271 69.4249 23.1303 69.7696C23.2356 70.1142 23.3841 70.3742 23.5761 70.5496C23.768 70.723 23.996 70.8097 24.2602 70.8097ZM30.0743 71.7786C29.5646 71.7786 29.1271 71.6496 28.7618 71.3916C28.3986 71.1316 28.119 70.757 27.9229 70.268C27.7289 69.7768 27.6319 69.1856 27.6319 68.4942C27.634 67.8029 27.732 67.2148 27.926 66.7298C28.1221 66.2428 28.4017 65.8713 28.7649 65.6154C29.1302 65.3595 29.5666 65.2316 30.0743 65.2316C30.582 65.2316 31.0184 65.3595 31.3837 65.6154C31.749 65.8713 32.0286 66.2428 32.2226 66.7298C32.4186 67.2168 32.5166 67.805 32.5166 68.4942C32.5166 69.1876 32.4186 69.7799 32.2226 70.2711C32.0286 70.7601 31.749 71.1337 31.3837 71.3916C31.0205 71.6496 30.584 71.7786 30.0743 71.7786ZM30.0743 70.8097C30.4705 70.8097 30.7832 70.6147 31.0122 70.2246C31.2434 69.8325 31.3589 69.2557 31.3589 68.4942C31.3589 67.9907 31.3063 67.5676 31.2011 67.2251C31.0958 66.8825 30.9472 66.6246 30.7553 66.4512C30.5634 66.2758 30.3364 66.1881 30.0743 66.1881C29.6801 66.1881 29.3685 66.3841 29.1395 66.7762C28.9104 67.1663 28.7948 67.7389 28.7928 68.4942C28.7907 68.9998 28.8413 69.4249 28.9444 69.7696C29.0497 70.1142 29.1983 70.3742 29.3902 70.5496C29.5821 70.723 29.8101 70.8097 30.0743 70.8097ZM34.579 70.1658L34.5759 68.8131H34.7555L36.4642 66.9031H37.7736L35.6717 69.2433H35.4396L34.579 70.1658ZM33.5575 71.6578V65.3183H34.6781V71.6578H33.5575ZM36.5416 71.6578L34.9938 69.4941L35.7491 68.7047L37.8819 71.6578H36.5416Z" fill="black"/>
<path d="M18.5141 103.394C18.0684 103.394 17.6722 103.318 17.3255 103.165C16.9808 103.012 16.7084 102.8 16.5083 102.527C16.3081 102.255 16.2018 101.94 16.1894 101.583H17.3533C17.3636 101.754 17.4204 101.904 17.5236 102.032C17.6268 102.158 17.764 102.256 17.9353 102.326C18.1066 102.396 18.2985 102.431 18.511 102.431C18.738 102.431 18.9393 102.392 19.1147 102.314C19.2901 102.233 19.4273 102.122 19.5264 101.979C19.6254 101.837 19.6739 101.673 19.6719 101.487C19.6739 101.295 19.6244 101.126 19.5233 100.98C19.4222 100.833 19.2756 100.719 19.0837 100.636C18.8939 100.553 18.6648 100.512 18.3965 100.512H17.8362V99.6268H18.3965C18.6173 99.6268 18.8103 99.5886 18.9754 99.5123C19.1425 99.4359 19.2736 99.3286 19.3685 99.1904C19.4634 99.05 19.5099 98.888 19.5078 98.7044C19.5099 98.5248 19.4696 98.369 19.3871 98.2369C19.3066 98.1028 19.1921 97.9986 19.0435 97.9243C18.8969 97.85 18.7246 97.8129 18.5265 97.8129C18.3325 97.8129 18.153 97.8479 17.9879 97.9181C17.8228 97.9883 17.6897 98.0884 17.5886 98.2184C17.4875 98.3463 17.4338 98.499 17.4276 98.6765H16.3225C16.3308 98.3216 16.4329 98.0099 16.629 97.7417C16.8271 97.4713 17.0912 97.2608 17.4214 97.1102C17.7516 96.9575 18.122 96.8811 18.5327 96.8811C18.9558 96.8811 19.3231 96.9606 19.6347 97.1195C19.9484 97.2763 20.1909 97.4878 20.3622 97.754C20.5334 98.0203 20.6191 98.3143 20.6191 98.6363C20.6211 98.9933 20.5159 99.2925 20.3033 99.534C20.0928 99.7754 19.8163 99.9333 19.4737 100.008V100.057C19.9195 100.119 20.261 100.284 20.4984 100.552C20.7377 100.819 20.8564 101.15 20.8543 101.546C20.8543 101.901 20.7532 102.219 20.551 102.499C20.3508 102.778 20.0743 102.997 19.7214 103.156C19.3706 103.315 18.9681 103.394 18.5141 103.394ZM24.2602 103.428C23.7504 103.428 23.3129 103.299 22.9477 103.041C22.5845 102.781 22.3048 102.407 22.1088 101.917C21.9148 101.426 21.8178 100.835 21.8178 100.144C21.8199 99.4524 21.9179 98.8643 22.1119 98.3793C22.3079 97.8923 22.5876 97.5209 22.9508 97.265C23.316 97.0091 23.7525 96.8811 24.2602 96.8811C24.7678 96.8811 25.2043 97.0091 25.5696 97.265C25.9348 97.5209 26.2145 97.8923 26.4084 98.3793C26.6045 98.8664 26.7025 99.4545 26.7025 100.144C26.7025 100.837 26.6045 101.429 26.4084 101.921C26.2145 102.41 25.9348 102.783 25.5696 103.041C25.2064 103.299 24.7699 103.428 24.2602 103.428ZM24.2602 102.459C24.6564 102.459 24.969 102.264 25.1981 101.874C25.4292 101.482 25.5448 100.905 25.5448 100.144C25.5448 99.6402 25.4922 99.2172 25.3869 98.8746C25.2817 98.532 25.1331 98.2741 24.9412 98.1007C24.7492 97.9253 24.5222 97.8376 24.2602 97.8376C23.866 97.8376 23.5544 98.0337 23.3253 98.4258C23.0963 98.8158 22.9807 99.3885 22.9786 100.144C22.9766 100.649 23.0271 101.074 23.1303 101.419C23.2355 101.764 23.3841 102.024 23.5761 102.199C23.768 102.373 23.996 102.459 24.2602 102.459ZM30.0743 103.428C29.5646 103.428 29.1271 103.299 28.7618 103.041C28.3986 102.781 28.119 102.407 27.9229 101.917C27.7289 101.426 27.6319 100.835 27.6319 100.144C27.634 99.4524 27.732 98.8643 27.926 98.3793C28.1221 97.8923 28.4017 97.5209 28.7649 97.265C29.1302 97.0091 29.5666 96.8811 30.0743 96.8811C30.5819 96.8811 31.0184 97.0091 31.3837 97.265C31.7489 97.5209 32.0286 97.8923 32.2226 98.3793C32.4186 98.8664 32.5166 99.4545 32.5166 100.144C32.5166 100.837 32.4186 101.429 32.2226 101.921C32.0286 102.41 31.7489 102.783 31.3837 103.041C31.0205 103.299 30.584 103.428 30.0743 103.428ZM30.0743 102.459C30.4705 102.459 30.7832 102.264 31.0122 101.874C31.2433 101.482 31.3589 100.905 31.3589 100.144C31.3589 99.6402 31.3063 99.2172 31.201 98.8746C31.0958 98.532 30.9472 98.2741 30.7553 98.1007C30.5634 97.9253 30.3364 97.8376 30.0743 97.8376C29.6801 97.8376 29.3685 98.0337 29.1394 98.4258C28.9104 98.8158 28.7948 99.3885 28.7927 100.144C28.7907 100.649 28.8412 101.074 28.9444 101.419C29.0497 101.764 29.1983 102.024 29.3902 102.199C29.5821 102.373 29.8101 102.459 30.0743 102.459ZM34.579 101.815L34.5759 100.463H34.7555L36.4642 98.5527H37.7736L35.6717 100.893H35.4396L34.579 101.815ZM33.5575 103.307V96.9678H34.6781V103.307H33.5575ZM36.5416 103.307L34.9938 101.144L35.7491 100.354L37.8819 103.307H36.5416Z" fill="black"/>
<path d="M16.5029 134.269V133.439L18.7038 131.282C18.9142 131.069 19.0897 130.88 19.23 130.715C19.3703 130.55 19.4756 130.39 19.5457 130.235C19.6159 130.081 19.651 129.916 19.651 129.74C19.651 129.54 19.6056 129.369 19.5148 129.226C19.424 129.082 19.2991 128.97 19.1402 128.892C18.9813 128.814 18.8007 128.774 18.5985 128.774C18.3901 128.774 18.2074 128.818 18.0506 128.904C17.8938 128.989 17.772 129.11 17.6853 129.267C17.6007 129.423 17.5584 129.61 17.5584 129.827H16.4657C16.4657 129.424 16.5575 129.075 16.7412 128.778C16.9249 128.48 17.1777 128.25 17.4996 128.087C17.8236 127.924 18.1951 127.843 18.614 127.843C19.0391 127.843 19.4126 127.922 19.7346 128.081C20.0565 128.24 20.3062 128.458 20.4837 128.734C20.6632 129.011 20.753 129.326 20.753 129.681C20.753 129.919 20.7076 130.152 20.6168 130.381C20.526 130.61 20.366 130.864 20.137 131.142C19.91 131.421 19.5911 131.758 19.1805 132.155L18.0878 133.266V133.309H20.8489V134.269H16.5029ZM24.2602 134.39C23.7505 134.39 23.313 134.261 22.9477 134.003C22.5845 133.743 22.3049 133.368 22.1088 132.879C21.9148 132.388 21.8178 131.797 21.8178 131.105C21.8199 130.414 21.9179 129.826 22.1119 129.341C22.3079 128.854 22.5876 128.482 22.9508 128.227C23.3161 127.971 23.7525 127.843 24.2602 127.843C24.7678 127.843 25.2043 127.971 25.5696 128.227C25.9348 128.482 26.2145 128.854 26.4085 129.341C26.6045 129.828 26.7025 130.416 26.7025 131.105C26.7025 131.799 26.6045 132.391 26.4085 132.882C26.2145 133.371 25.9348 133.745 25.5696 134.003C25.2064 134.261 24.7699 134.39 24.2602 134.39ZM24.2602 133.421C24.6564 133.421 24.969 133.226 25.1981 132.836C25.4292 132.444 25.5448 131.867 25.5448 131.105C25.5448 130.602 25.4922 130.179 25.3869 129.836C25.2817 129.494 25.1331 129.236 24.9412 129.062C24.7493 128.887 24.5223 128.799 24.2602 128.799C23.866 128.799 23.5544 128.995 23.3253 129.387C23.0963 129.777 22.9807 130.35 22.9786 131.105C22.9766 131.611 23.0271 132.036 23.1303 132.381C23.2356 132.725 23.3842 132.985 23.5761 133.161C23.768 133.334 23.996 133.421 24.2602 133.421ZM30.0743 134.39C29.5646 134.39 29.1271 134.261 28.7618 134.003C28.3986 133.743 28.119 133.368 27.9229 132.879C27.7289 132.388 27.632 131.797 27.632 131.105C27.634 130.414 27.732 129.826 27.926 129.341C28.1221 128.854 28.4017 128.482 28.7649 128.227C29.1302 127.971 29.5666 127.843 30.0743 127.843C30.582 127.843 31.0184 127.971 31.3837 128.227C31.749 128.482 32.0286 128.854 32.2226 129.341C32.4186 129.828 32.5166 130.416 32.5166 131.105C32.5166 131.799 32.4186 132.391 32.2226 132.882C32.0286 133.371 31.749 133.745 31.3837 134.003C31.0205 134.261 30.584 134.39 30.0743 134.39ZM30.0743 133.421C30.4705 133.421 30.7832 133.226 31.0122 132.836C31.2434 132.444 31.3589 131.867 31.3589 131.105C31.3589 130.602 31.3063 130.179 31.2011 129.836C31.0958 129.494 30.9472 129.236 30.7553 129.062C30.5634 128.887 30.3364 128.799 30.0743 128.799C29.6801 128.799 29.3685 128.995 29.1395 129.387C28.9104 129.777 28.7948 130.35 28.7928 131.105C28.7907 131.611 28.8413 132.036 28.9444 132.381C29.0497 132.725 29.1983 132.985 29.3902 133.161C29.5821 133.334 29.8102 133.421 30.0743 133.421ZM34.579 132.777L34.5759 131.424H34.7555L36.4642 129.514H37.7736L35.6717 131.854H35.4396L34.579 132.777ZM33.5575 134.269V127.929H34.6781V134.269H33.5575ZM36.5416 134.269L34.9938 132.105L35.7491 131.316L37.8819 134.269H36.5416Z" fill="black"/>
<path d="M20.3072 159.579V165.919H19.1588V160.696H19.1216L17.6389 161.644V160.591L19.2145 159.579H20.3072ZM24.2602 166.039C23.7505 166.039 23.313 165.91 22.9477 165.652C22.5845 165.392 22.3049 165.018 22.1088 164.529C21.9148 164.038 21.8178 163.446 21.8178 162.755C21.8199 162.064 21.9179 161.476 22.1119 160.991C22.3079 160.504 22.5876 160.132 22.9508 159.876C23.3161 159.62 23.7525 159.492 24.2602 159.492C24.7678 159.492 25.2043 159.62 25.5696 159.876C25.9348 160.132 26.2145 160.504 26.4085 160.991C26.6045 161.478 26.7025 162.066 26.7025 162.755C26.7025 163.448 26.6045 164.041 26.4085 164.532C26.2145 165.021 25.9348 165.394 25.5696 165.652C25.2064 165.91 24.7699 166.039 24.2602 166.039ZM24.2602 165.07C24.6564 165.07 24.969 164.875 25.1981 164.485C25.4292 164.093 25.5448 163.516 25.5448 162.755C25.5448 162.251 25.4922 161.828 25.3869 161.486C25.2817 161.143 25.1331 160.885 24.9412 160.712C24.7493 160.537 24.5223 160.449 24.2602 160.449C23.866 160.449 23.5544 160.645 23.3253 161.037C23.0963 161.427 22.9807 162 22.9786 162.755C22.9766 163.261 23.0271 163.686 23.1303 164.03C23.2356 164.375 23.3842 164.635 23.5761 164.81C23.768 164.984 23.996 165.07 24.2602 165.07ZM30.0743 166.039C29.5646 166.039 29.1271 165.91 28.7618 165.652C28.3986 165.392 28.119 165.018 27.9229 164.529C27.7289 164.038 27.632 163.446 27.632 162.755C27.634 162.064 27.732 161.476 27.926 160.991C28.1221 160.504 28.4017 160.132 28.7649 159.876C29.1302 159.62 29.5666 159.492 30.0743 159.492C30.582 159.492 31.0184 159.62 31.3837 159.876C31.749 160.132 32.0286 160.504 32.2226 160.991C32.4186 161.478 32.5167 162.066 32.5167 162.755C32.5167 163.448 32.4186 164.041 32.2226 164.532C32.0286 165.021 31.749 165.394 31.3837 165.652C31.0205 165.91 30.584 166.039 30.0743 166.039ZM30.0743 165.07C30.4705 165.07 30.7832 164.875 31.0122 164.485C31.2434 164.093 31.3589 163.516 31.3589 162.755C31.3589 162.251 31.3063 161.828 31.2011 161.486C31.0958 161.143 30.9472 160.885 30.7553 160.712C30.5634 160.537 30.3364 160.449 30.0743 160.449C29.6801 160.449 29.3685 160.645 29.1395 161.037C28.9104 161.427 28.7948 162 28.7928 162.755C28.7907 163.261 28.8413 163.686 28.9444 164.03C29.0497 164.375 29.1983 164.635 29.3902 164.81C29.5821 164.984 29.8102 165.07 30.0743 165.07ZM34.579 164.427L34.5759 163.074H34.7555L36.4642 161.164H37.7736L35.6717 163.504H35.4396L34.579 164.427ZM33.5575 165.919V159.579H34.6781V165.919H33.5575ZM36.5416 165.919L34.9938 163.755L35.7491 162.965L37.8819 165.919H36.5416Z" fill="black"/>
<path d="M34.1208 197.513C33.6111 197.513 33.1736 197.384 32.8083 197.126C32.4451 196.866 32.1655 196.492 31.9694 196.003C31.7755 195.511 31.6785 194.92 31.6785 194.229C31.6805 193.538 31.7785 192.949 31.9725 192.464C32.1686 191.977 32.4482 191.606 32.8114 191.35C33.1767 191.094 33.6131 190.966 34.1208 190.966C34.6285 190.966 35.0649 191.094 35.4302 191.35C35.7955 191.606 36.0751 191.977 36.2691 192.464C36.4651 192.951 36.5632 193.54 36.5632 194.229C36.5632 194.922 36.4651 195.515 36.2691 196.006C36.0751 196.495 35.7955 196.868 35.4302 197.126C35.067 197.384 34.6305 197.513 34.1208 197.513ZM34.1208 196.544C34.517 196.544 34.8297 196.349 35.0587 195.959C35.2899 195.567 35.4054 194.99 35.4054 194.229C35.4054 193.725 35.3528 193.302 35.2476 192.96C35.1423 192.617 34.9937 192.359 34.8018 192.186C34.6099 192.01 34.3829 191.923 34.1208 191.923C33.7267 191.923 33.415 192.119 33.186 192.511C32.9569 192.901 32.8413 193.474 32.8393 194.229C32.8372 194.734 32.8878 195.16 32.991 195.504C33.0962 195.849 33.2448 196.109 33.4367 196.284C33.6286 196.458 33.8567 196.544 34.1208 196.544Z" fill="black"/>
</g>
<path d="M26.1182 20.8835C26.1182 21.8558 25.9403 22.6918 25.5846 23.3915C25.2288 24.0881 24.7412 24.6247 24.1216 25.0012C23.505 25.3748 22.8038 25.5615 22.0182 25.5615C21.2297 25.5615 20.5256 25.3748 19.906 25.0012C19.2894 24.6247 18.8032 24.0867 18.4475 23.387C18.0917 22.6874 17.9138 21.8529 17.9138 20.8835C17.9138 19.9111 18.0917 19.0766 18.4475 18.3799C18.8032 17.6803 19.2894 17.1437 19.906 16.7702C20.5256 16.3937 21.2297 16.2054 22.0182 16.2054C22.8038 16.2054 23.505 16.3937 24.1216 16.7702C24.7412 17.1437 25.2288 17.6803 25.5846 18.3799C25.9403 19.0766 26.1182 19.9111 26.1182 20.8835ZM24.7575 20.8835C24.7575 20.1423 24.6374 19.5183 24.3973 19.0114C24.1601 18.5015 23.834 18.1161 23.419 17.8552C23.0069 17.5914 22.54 17.4594 22.0182 17.4594C21.4935 17.4594 21.0251 17.5914 20.6131 17.8552C20.201 18.1161 19.8749 18.5015 19.6348 19.0114C19.3976 19.5183 19.279 20.1423 19.279 20.8835C19.279 21.6246 19.3976 22.2501 19.6348 22.76C19.8749 23.267 20.201 23.6524 20.6131 23.9162C21.0251 24.1771 21.4935 24.3075 22.0182 24.3075C22.54 24.3075 23.0069 24.1771 23.419 23.9162C23.834 23.6524 24.1601 23.267 24.3973 22.76C24.6374 22.2501 24.7575 21.6246 24.7575 20.8835ZM33.43 18.6067L30.9531 25.437H29.5301L27.0488 18.6067H28.4762L30.206 23.8628H30.2772L32.0026 18.6067H33.43ZM37.2532 25.5749C36.5803 25.5749 36.0007 25.4311 35.5145 25.1435C35.0313 24.853 34.6578 24.4454 34.3939 23.9206C34.1331 23.393 34.0026 22.7749 34.0026 22.0663C34.0026 21.3667 34.1331 20.7501 34.3939 20.2165C34.6578 19.6828 35.0254 19.2663 35.4967 18.9669C35.9711 18.6675 36.5254 18.5178 37.1598 18.5178C37.5452 18.5178 37.9188 18.5815 38.2804 18.709C38.6421 18.8365 38.9667 19.0366 39.2543 19.3093C39.5419 19.582 39.7686 19.9363 39.9347 20.3721C40.1007 20.8049 40.1837 21.3311 40.1837 21.9507V22.4221H34.7541V21.426H38.8808C38.8808 21.0762 38.8096 20.7664 38.6673 20.4966C38.525 20.2239 38.3249 20.0089 38.067 19.8518C37.812 19.6947 37.5126 19.6161 37.1687 19.6161C36.7952 19.6161 36.4691 19.708 36.1904 19.8918C35.9147 20.0727 35.7013 20.3098 35.5501 20.6033C35.4019 20.8939 35.3278 21.2096 35.3278 21.5505V22.3287C35.3278 22.7852 35.4078 23.1736 35.5679 23.4938C35.7309 23.8139 35.9577 24.0585 36.2483 24.2275C36.5388 24.3935 36.8782 24.4765 37.2666 24.4765C37.5186 24.4765 37.7483 24.4409 37.9558 24.3698C38.1633 24.2957 38.3427 24.186 38.4939 24.0407C38.6451 23.8955 38.7607 23.7161 38.8407 23.5026L40.0992 23.7294C39.9984 24.1 39.8176 24.4246 39.5567 24.7033C39.2988 24.979 38.9741 25.1939 38.5828 25.3481C38.1945 25.4993 37.7513 25.5749 37.2532 25.5749ZM41.5212 25.437V18.6067H42.8063V19.6917H42.8774C43.002 19.3241 43.2213 19.0351 43.5356 18.8246C43.8528 18.6112 44.2115 18.5044 44.6117 18.5044C44.6947 18.5044 44.7925 18.5074 44.9052 18.5133C45.0208 18.5193 45.1112 18.5267 45.1764 18.5356V19.8073C45.1231 19.7925 45.0282 19.7762 44.8918 19.7584C44.7555 19.7377 44.6191 19.7273 44.4827 19.7273C44.1685 19.7273 43.8884 19.794 43.6423 19.9274C43.3992 20.0579 43.2065 20.2402 43.0642 20.4744C42.9219 20.7056 42.8508 20.9694 42.8508 21.2659V25.437H41.5212ZM48.1159 25.5882C47.6831 25.5882 47.2918 25.5082 46.9419 25.3481C46.5921 25.185 46.3149 24.9493 46.1104 24.641C45.9088 24.3327 45.808 23.9547 45.808 23.5071C45.808 23.1217 45.8821 22.8045 46.0303 22.5555C46.1786 22.3065 46.3787 22.1093 46.6307 21.9641C46.8826 21.8188 47.1643 21.7091 47.4756 21.635C47.7868 21.5609 48.104 21.5045 48.4272 21.466C48.8363 21.4186 49.1683 21.38 49.4233 21.3504C49.6782 21.3178 49.8635 21.2659 49.9791 21.1948C50.0947 21.1236 50.1525 21.008 50.1525 20.8479V20.8168C50.1525 20.4284 50.0428 20.1275 49.8235 19.9141C49.6071 19.7006 49.2839 19.5939 48.8541 19.5939C48.4064 19.5939 48.0536 19.6932 47.7957 19.8918C47.5408 20.0875 47.3644 20.3054 47.2666 20.5455L46.017 20.2609C46.1652 19.8459 46.3816 19.5109 46.6662 19.2559C46.9538 18.998 47.2843 18.8113 47.6579 18.6956C48.0314 18.5771 48.4242 18.5178 48.8363 18.5178C49.109 18.5178 49.3981 18.5504 49.7034 18.6156C50.0117 18.6779 50.2993 18.7935 50.5661 18.9625C50.8359 19.1314 51.0567 19.373 51.2287 19.6873C51.4006 19.9986 51.4866 20.4032 51.4866 20.9013V25.437H50.1881V24.5032H50.1347C50.0488 24.6751 49.9198 24.8441 49.7479 25.0101C49.5759 25.1761 49.3551 25.314 49.0853 25.4237C48.8155 25.5334 48.4924 25.5882 48.1159 25.5882ZM48.4049 24.521C48.7725 24.521 49.0868 24.4483 49.3477 24.3031C49.6115 24.1578 49.8116 23.9681 49.948 23.7339C50.0873 23.4967 50.157 23.2433 50.157 22.9735V22.093C50.1095 22.1404 50.0176 22.1849 49.8813 22.2264C49.7479 22.265 49.5952 22.299 49.4233 22.3287C49.2513 22.3554 49.0838 22.3806 48.9208 22.4043C48.7577 22.425 48.6213 22.4428 48.5117 22.4576C48.2537 22.4903 48.0181 22.5451 47.8046 22.6222C47.5941 22.6993 47.4252 22.8104 47.2977 22.9557C47.1732 23.098 47.1109 23.2877 47.1109 23.5249C47.1109 23.8539 47.2325 24.103 47.4756 24.2719C47.7186 24.438 48.0284 24.521 48.4049 24.521ZM54.4494 16.3299V25.437H53.1198V16.3299H54.4494ZM57.43 16.3299V25.437H56.1004V16.3299H57.43ZM68.2204 16.3299H69.5989V22.3198C69.5989 22.9572 69.4492 23.5219 69.1497 24.014C68.8503 24.5032 68.4294 24.8886 67.8868 25.1702C67.3443 25.4489 66.7084 25.5882 65.9792 25.5882C65.2529 25.5882 64.6184 25.4489 64.0759 25.1702C63.5334 24.8886 63.1125 24.5032 62.813 24.014C62.5136 23.5219 62.3639 22.9572 62.3639 22.3198V16.3299H63.738V22.2086C63.738 22.6207 63.8284 22.9868 64.0092 23.307C64.193 23.6272 64.4524 23.8791 64.7874 24.0629C65.1224 24.2438 65.5197 24.3342 65.9792 24.3342C66.4416 24.3342 66.8404 24.2438 67.1754 24.0629C67.5133 23.8791 67.7712 23.6272 67.9491 23.307C68.1299 22.9868 68.2204 22.6207 68.2204 22.2086V16.3299ZM76.4704 20.2743L75.2653 20.4877C75.2149 20.3336 75.1349 20.1868 75.0252 20.0475C74.9185 19.9081 74.7732 19.794 74.5894 19.7051C74.4056 19.6161 74.1759 19.5717 73.9002 19.5717C73.5237 19.5717 73.2094 19.6562 72.9574 19.8251C72.7054 19.9911 72.5794 20.2061 72.5794 20.4699C72.5794 20.6982 72.6639 20.882 72.8329 21.0213C73.0019 21.1607 73.2746 21.2748 73.6511 21.3637L74.7362 21.6128C75.3646 21.758 75.833 21.9818 76.1413 22.2842C76.4497 22.5866 76.6038 22.9794 76.6038 23.4626C76.6038 23.8717 76.4852 24.2364 76.2481 24.5565C76.0139 24.8737 75.6863 25.1228 75.2653 25.3036C74.8473 25.4844 74.3626 25.5749 73.8112 25.5749C73.0464 25.5749 72.4223 25.4118 71.9391 25.0857C71.4559 24.7566 71.1594 24.2897 71.0497 23.685L72.3349 23.4893C72.4149 23.8243 72.5794 24.0778 72.8285 24.2497C73.0775 24.4187 73.4021 24.5032 73.8023 24.5032C74.2381 24.5032 74.5864 24.4128 74.8473 24.2319C75.1082 24.0481 75.2386 23.8243 75.2386 23.5605C75.2386 23.347 75.1586 23.1677 74.9985 23.0224C74.8414 22.8771 74.5998 22.7674 74.2737 22.6933L73.1175 22.4399C72.4801 22.2946 72.0088 22.0634 71.7034 21.7462C71.401 21.429 71.2499 21.0273 71.2499 20.5411C71.2499 20.1379 71.3625 19.7851 71.5878 19.4827C71.8131 19.1803 72.1244 18.9447 72.5216 18.7757C72.9189 18.6037 73.3739 18.5178 73.8868 18.5178C74.625 18.5178 75.206 18.6779 75.63 18.998C76.0539 19.3152 76.334 19.7406 76.4704 20.2743ZM80.8717 25.5749C80.1988 25.5749 79.6192 25.4311 79.133 25.1435C78.6498 24.853 78.2763 24.4454 78.0124 23.9206C77.7516 23.393 77.6211 22.7749 77.6211 22.0663C77.6211 21.3667 77.7516 20.7501 78.0124 20.2165C78.2763 19.6828 78.6439 19.2663 79.1153 18.9669C79.5896 18.6675 80.144 18.5178 80.7784 18.5178C81.1638 18.5178 81.5373 18.5815 81.899 18.709C82.2606 18.8365 82.5853 19.0366 82.8728 19.3093C83.1604 19.582 83.3872 19.9363 83.5532 20.3721C83.7192 20.8049 83.8022 21.3311 83.8022 21.9507V22.4221H78.3726V21.426H82.4993C82.4993 21.0762 82.4281 20.7664 82.2858 20.4966C82.1435 20.2239 81.9434 20.0089 81.6855 19.8518C81.4306 19.6947 81.1311 19.6161 80.7873 19.6161C80.4137 19.6161 80.0876 19.708 79.809 19.8918C79.5333 20.0727 79.3198 20.3098 79.1686 20.6033C79.0204 20.8939 78.9463 21.2096 78.9463 21.5505V22.3287C78.9463 22.7852 79.0263 23.1736 79.1864 23.4938C79.3495 23.8139 79.5762 24.0585 79.8668 24.2275C80.1573 24.3935 80.4967 24.4765 80.8851 24.4765C81.1371 24.4765 81.3668 24.4409 81.5743 24.3698C81.7819 24.2957 81.9612 24.186 82.1124 24.0407C82.2636 23.8955 82.3792 23.7161 82.4593 23.5026L83.7177 23.7294C83.6169 24.1 83.4361 24.4246 83.1752 24.7033C82.9173 24.979 82.5927 25.1939 82.2013 25.3481C81.813 25.4993 81.3698 25.5749 80.8717 25.5749ZM85.1397 25.437V18.6067H86.4248V19.6917H86.496C86.6205 19.3241 86.8398 19.0351 87.1541 18.8246C87.4713 18.6112 87.83 18.5044 88.2302 18.5044C88.3132 18.5044 88.4111 18.5074 88.5237 18.5133C88.6393 18.5193 88.7297 18.5267 88.795 18.5356V19.8073C88.7416 19.7925 88.6467 19.7762 88.5104 19.7584C88.374 19.7377 88.2376 19.7273 88.1013 19.7273C87.787 19.7273 87.5069 19.794 87.2608 19.9274C87.0177 20.0579 86.825 20.2402 86.6827 20.4744C86.5404 20.7056 86.4693 20.9694 86.4693 21.2659V25.437H85.1397ZM93.8601 25.437H92.4015L95.6788 16.3299H97.2664L100.544 25.437H99.0851L96.5104 17.9842H96.4392L93.8601 25.437ZM94.1047 21.8707H98.8361V23.0268H94.1047V21.8707ZM104.381 25.5749C103.72 25.5749 103.151 25.4252 102.674 25.1257C102.199 24.8234 101.835 24.4068 101.58 23.8762C101.325 23.3455 101.197 22.7378 101.197 22.053C101.197 21.3593 101.328 20.7471 101.589 20.2165C101.85 19.6828 102.217 19.2663 102.692 18.9669C103.166 18.6675 103.725 18.5178 104.368 18.5178C104.887 18.5178 105.349 18.6141 105.755 18.8068C106.162 18.9965 106.489 19.2634 106.738 19.6072C106.99 19.9511 107.14 20.3528 107.187 20.8123H105.893C105.822 20.4922 105.659 20.2165 105.404 19.9852C105.152 19.754 104.814 19.6384 104.39 19.6384C104.02 19.6384 103.695 19.7362 103.416 19.9319C103.141 20.1246 102.926 20.4003 102.772 20.759C102.617 21.1147 102.54 21.5357 102.54 22.0219C102.54 22.5199 102.616 22.9498 102.767 23.3114C102.918 23.6731 103.132 23.9533 103.408 24.1519C103.686 24.3505 104.014 24.4498 104.39 24.4498C104.642 24.4498 104.871 24.4039 105.075 24.312C105.283 24.2171 105.456 24.0822 105.595 23.9073C105.738 23.7324 105.837 23.5219 105.893 23.2759H107.187C107.14 23.7176 106.996 24.1119 106.756 24.4587C106.516 24.8056 106.194 25.0783 105.791 25.2769C105.391 25.4756 104.921 25.5749 104.381 25.5749ZM111.66 18.6067V19.6739H107.929V18.6067H111.66ZM108.929 16.9703H110.259V23.4315C110.259 23.6894 110.298 23.8836 110.375 24.014C110.452 24.1415 110.551 24.229 110.673 24.2764C110.797 24.3209 110.932 24.3431 111.077 24.3431C111.184 24.3431 111.277 24.3357 111.357 24.3209C111.437 24.306 111.5 24.2942 111.544 24.2853L111.784 25.3836C111.707 25.4133 111.598 25.4429 111.455 25.4726C111.313 25.5052 111.135 25.523 110.922 25.5259C110.572 25.5319 110.246 25.4696 109.943 25.3392C109.641 25.2087 109.396 25.0072 109.21 24.7344C109.023 24.4617 108.929 24.1193 108.929 23.7072V16.9703ZM112.993 25.437V18.6067H114.322V25.437H112.993ZM113.664 17.5528C113.433 17.5528 113.234 17.4757 113.068 17.3216C112.905 17.1645 112.824 16.9777 112.824 16.7613C112.824 16.5419 112.905 16.3551 113.068 16.201C113.234 16.0439 113.433 15.9653 113.664 15.9653C113.896 15.9653 114.093 16.0439 114.256 16.201C114.422 16.3551 114.505 16.5419 114.505 16.7613C114.505 16.9777 114.422 17.1645 114.256 17.3216C114.093 17.4757 113.896 17.5528 113.664 17.5528ZM121.817 18.6067L119.34 25.437H117.917L115.435 18.6067H116.863L118.593 23.8628H118.664L120.389 18.6067H121.817ZM122.928 25.437V18.6067H124.258V25.437H122.928ZM123.6 17.5528C123.369 17.5528 123.17 17.4757 123.004 17.3216C122.841 17.1645 122.759 16.9777 122.759 16.7613C122.759 16.5419 122.841 16.3551 123.004 16.201C123.17 16.0439 123.369 15.9653 123.6 15.9653C123.831 15.9653 124.028 16.0439 124.191 16.201C124.357 16.3551 124.44 16.5419 124.44 16.7613C124.44 16.9777 124.357 17.1645 124.191 17.3216C124.028 17.4757 123.831 17.5528 123.6 17.5528ZM129.097 18.6067V19.6739H125.366V18.6067H129.097ZM126.367 16.9703H127.697V23.4315C127.697 23.6894 127.735 23.8836 127.812 24.014C127.889 24.1415 127.989 24.229 128.11 24.2764C128.235 24.3209 128.369 24.3431 128.515 24.3431C128.621 24.3431 128.715 24.3357 128.795 24.3209C128.875 24.306 128.937 24.2942 128.982 24.2853L129.222 25.3836C129.145 25.4133 129.035 25.4429 128.893 25.4726C128.75 25.5052 128.573 25.523 128.359 25.5259C128.009 25.5319 127.683 25.4696 127.381 25.3392C127.078 25.2087 126.834 25.0072 126.647 24.7344C126.46 24.4617 126.367 24.1193 126.367 23.7072V16.9703ZM131.271 27.9984C131.072 27.9984 130.891 27.9821 130.728 27.9495C130.565 27.9198 130.444 27.8872 130.364 27.8516L130.684 26.7622C130.927 26.8274 131.143 26.8555 131.333 26.8467C131.523 26.8378 131.69 26.7666 131.835 26.6332C131.984 26.4998 132.114 26.2819 132.227 25.9795L132.391 25.5259L129.892 18.6067H131.315L133.045 23.9073H133.116L134.846 18.6067H136.273L133.459 26.3486C133.328 26.7044 133.162 27.0053 132.961 27.2513C132.759 27.5003 132.519 27.6871 132.24 27.8116C131.961 27.9361 131.638 27.9984 131.271 27.9984Z" fill="#4D4D4D"/>
<line x1="17.2068" y1="38.9755" x2="466.218" y2="38.9754" stroke="#E4E5E7" stroke-width="0.715555"/>
<path d="M419.69 27.8667H418.181L420.929 20.0606H422.675L425.427 27.8667H423.917L421.832 21.6615H421.771L419.69 27.8667ZM419.74 24.806H423.856V25.9419H419.74V24.806ZM428.406 27.9696C427.946 27.9696 427.535 27.8515 427.171 27.6151C426.808 27.3788 426.521 27.0358 426.31 26.586C426.099 26.1363 425.993 25.5899 425.993 24.947C425.993 24.2965 426.1 23.7477 426.314 23.3005C426.53 22.8507 426.821 22.5115 427.186 22.2828C427.552 22.0515 427.96 21.9359 428.41 21.9359C428.753 21.9359 429.035 21.9944 429.256 22.1113C429.477 22.2256 429.653 22.3641 429.782 22.5267C429.912 22.6868 430.012 22.838 430.083 22.9803H430.14V20.0606H431.524V27.8667H430.167V26.9443H430.083C430.012 27.0866 429.909 27.2378 429.774 27.3979C429.64 27.5554 429.462 27.6901 429.241 27.8019C429.02 27.9137 428.742 27.9696 428.406 27.9696ZM428.791 26.8376C429.083 26.8376 429.332 26.7588 429.538 26.6013C429.744 26.4412 429.9 26.2188 430.007 25.9342C430.114 25.6496 430.167 25.318 430.167 24.9394C430.167 24.5608 430.114 24.2317 430.007 23.9522C429.903 23.6727 429.748 23.4555 429.542 23.3005C429.339 23.1455 429.088 23.068 428.791 23.068C428.484 23.068 428.227 23.148 428.021 23.3081C427.815 23.4682 427.66 23.6892 427.556 23.9713C427.452 24.2533 427.4 24.5761 427.4 24.9394C427.4 25.3053 427.452 25.6319 427.556 25.919C427.663 26.2036 427.819 26.4285 428.025 26.5936C428.233 26.7563 428.489 26.8376 428.791 26.8376ZM433.012 27.8667V22.0122H434.331V23.007H434.4C434.522 22.6716 434.724 22.4098 435.006 22.2218C435.288 22.0312 435.624 21.9359 436.016 21.9359C436.412 21.9359 436.746 22.0325 437.018 22.2256C437.293 22.4162 437.486 22.6766 437.597 23.007H437.658C437.788 22.6817 438.007 22.4225 438.314 22.2294C438.624 22.0338 438.991 21.9359 439.416 21.9359C439.954 21.9359 440.394 22.1062 440.734 22.4467C441.075 22.7872 441.245 23.2839 441.245 23.937V27.8667H439.862V24.1504C439.862 23.7871 439.765 23.5215 439.572 23.3538C439.379 23.1836 439.142 23.0984 438.863 23.0984C438.53 23.0984 438.27 23.2026 438.082 23.411C437.896 23.6168 437.803 23.8849 437.803 24.2152V27.8667H436.45V24.0933C436.45 23.7909 436.359 23.5495 436.176 23.3691C435.995 23.1887 435.759 23.0984 435.467 23.0984C435.269 23.0984 435.088 23.1493 434.926 23.2509C434.763 23.35 434.633 23.491 434.537 23.674C434.44 23.8544 434.392 24.0653 434.392 24.3067V27.8667H433.012ZM442.663 27.8667V22.0122H444.043V27.8667H442.663ZM443.357 21.1812C443.138 21.1812 442.95 21.1088 442.792 20.964C442.635 20.8166 442.556 20.64 442.556 20.4342C442.556 20.2258 442.635 20.0492 442.792 19.9044C442.95 19.757 443.138 19.6833 443.357 19.6833C443.578 19.6833 443.766 19.757 443.921 19.9044C444.078 20.0492 444.157 20.2258 444.157 20.4342C444.157 20.64 444.078 20.8166 443.921 20.964C443.766 21.1088 443.578 21.1812 443.357 21.1812ZM446.859 24.4363V27.8667H445.479V22.0122H446.798V23.007H446.867C447.001 22.6792 447.216 22.4187 447.511 22.2256C447.808 22.0325 448.175 21.9359 448.612 21.9359C449.016 21.9359 449.368 22.0223 449.668 22.1951C449.971 22.3679 450.204 22.6182 450.37 22.946C450.537 23.2738 450.62 23.6714 450.617 24.139V27.8667H449.238V24.3524C449.238 23.9611 449.136 23.6549 448.933 23.4339C448.732 23.2128 448.454 23.1023 448.098 23.1023C447.856 23.1023 447.642 23.1556 447.454 23.2623C447.268 23.3665 447.122 23.5177 447.015 23.7159C446.911 23.9141 446.859 24.1542 446.859 24.4363Z" fill="#0F2552"/>
<path d="M458.324 22.175L461.746 25.5963L465.167 22.175L466.218 23.2335L461.746 27.7057L457.273 23.2335L458.324 22.175Z" fill="#848A95"/>
<path d="M56.042 198.092L73.1711 190.912C76.6157 189.468 79.5995 187.112 81.8011 184.096L88.176 175.362C94.6075 166.551 108.167 167.974 112.665 177.931V177.931C114.229 181.392 117.108 184.089 120.665 185.422L123.661 186.546C126.996 187.797 130.743 186.486 132.565 183.432L135.505 178.504C139.305 172.132 148.735 172.767 151.672 179.593V179.593C154.984 187.292 166.054 186.818 168.667 178.866L171.458 170.369L179.956 140.629L184.204 125.759L186.328 118.324V118.324C187.106 115.601 190.797 115.2 192.152 117.691L201.463 134.81C202.028 135.851 202.756 136.794 203.618 137.606L206.917 140.71C208.91 142.586 210.644 144.718 212.074 147.051L216.7 154.599C217.803 156.399 219.548 157.714 221.581 158.279V158.279C224.582 159.113 227.794 158.203 229.907 155.921L230.165 155.642C231.257 154.463 232.01 153.011 232.346 151.438L240.33 114.029L244.579 94.1226L247.486 82.2667V82.2667C248.629 76.126 256.939 75.0004 259.695 80.6131L273.618 108.965C274.948 111.673 277.076 113.909 279.716 115.37V115.37C283.133 117.261 287.159 117.719 290.908 116.643L300.193 113.978C302.17 113.411 304.089 112.658 305.925 111.731L308.786 110.285C318.328 105.464 329.804 106.569 338.272 113.125V113.125L350.2 123.105C355.853 127.835 364.174 127.474 369.376 122.271L370.031 121.616C370.324 121.323 370.648 121.063 370.998 120.84V120.84C373.293 119.377 376.305 119.737 378.196 121.702L381.296 124.924C381.829 125.477 382.445 125.943 383.123 126.303V126.303C386.462 128.081 390.602 127.004 392.644 123.826L409.628 97.3869C410.352 96.2592 411.261 95.2615 412.317 94.4355V94.4355C417.227 90.5928 424.271 91.1685 428.508 95.7585L431.742 99.2611L435.399 102.919C435.94 103.459 436.554 103.92 437.223 104.288V104.288C441.452 106.615 446.757 104.744 448.582 100.283L453.208 88.975L463.494 63.0361" stroke="url(#paint0_linear_3911_16012)" stroke-width="6.26111" stroke-linecap="round"/>
<defs>
<linearGradient id="paint0_linear_3911_16012" x1="245.767" y1="27.371" x2="171.612" y2="251.116" gradientUnits="userSpaceOnUse">
<stop stop-color="#1B59F8"/>
<stop offset="1" stop-color="#1B59F8" stop-opacity="0"/>
</linearGradient>
</defs>
</svg>
