<svg width="106" height="106" viewBox="0 0 106 106" fill="none" xmlns="http://www.w3.org/2000/svg">
<mask id="path-1-inside-1_3911_16008" fill="white">
<path d="M53.1426 4.54998C53.1426 2.08004 55.1485 0.0580804 57.6096 0.267091C64.7394 0.8726 71.6881 2.92302 78.0261 6.31075C85.6819 10.4029 92.2103 16.3199 97.0331 23.5378C101.856 30.7556 104.824 39.0515 105.675 47.6905C106.526 56.3295 105.233 65.0451 101.911 73.0651C98.5892 81.0852 93.3405 88.1621 86.6301 93.6692C79.9198 99.1763 71.9548 102.943 63.4408 104.637C54.9267 106.331 46.1264 105.898 37.8194 103.378C30.9423 101.292 24.5789 97.8285 19.1092 93.2151C17.2212 91.6227 17.2326 88.7746 18.9791 87.028L31.3173 74.6898C33.0638 72.9433 35.8782 72.9804 37.8942 74.4074C40.1995 76.0391 42.7598 77.2959 45.481 78.1214C49.6345 79.3813 54.0347 79.5975 58.2917 78.7507C62.5487 77.904 66.5312 76.0204 69.8864 73.2669C73.2415 70.5133 75.8659 66.9748 77.5269 62.9648C79.1879 58.9548 79.8343 54.597 79.4089 50.2775C78.9834 45.958 77.4993 41.8101 75.0879 38.2011C72.6765 34.5922 69.4122 31.6337 65.5843 29.5876C63.0765 28.2471 60.3774 27.3254 57.5935 26.8491C55.1589 26.4326 53.1426 24.4688 53.1426 21.9989V4.54998Z"/>
</mask>
<path d="M53.1426 4.54998C53.1426 2.08004 55.1485 0.0580804 57.6096 0.267091C64.7394 0.8726 71.6881 2.92302 78.0261 6.31075C85.6819 10.4029 92.2103 16.3199 97.0331 23.5378C101.856 30.7556 104.824 39.0515 105.675 47.6905C106.526 56.3295 105.233 65.0451 101.911 73.0651C98.5892 81.0852 93.3405 88.1621 86.6301 93.6692C79.9198 99.1763 71.9548 102.943 63.4408 104.637C54.9267 106.331 46.1264 105.898 37.8194 103.378C30.9423 101.292 24.5789 97.8285 19.1092 93.2151C17.2212 91.6227 17.2326 88.7746 18.9791 87.028L31.3173 74.6898C33.0638 72.9433 35.8782 72.9804 37.8942 74.4074C40.1995 76.0391 42.7598 77.2959 45.481 78.1214C49.6345 79.3813 54.0347 79.5975 58.2917 78.7507C62.5487 77.904 66.5312 76.0204 69.8864 73.2669C73.2415 70.5133 75.8659 66.9748 77.5269 62.9648C79.1879 58.9548 79.8343 54.597 79.4089 50.2775C78.9834 45.958 77.4993 41.8101 75.0879 38.2011C72.6765 34.5922 69.4122 31.6337 65.5843 29.5876C63.0765 28.2471 60.3774 27.3254 57.5935 26.8491C55.1589 26.4326 53.1426 24.4688 53.1426 21.9989V4.54998Z" fill="url(#paint0_linear_3911_16008)" stroke="white" stroke-width="3.57778" mask="url(#path-1-inside-1_3911_16008)"/>
<g opacity="0.5">
<mask id="path-2-inside-2_3911_16008" fill="white">
<path d="M4.93944 49.5852C2.47519 49.4175 0.594051 47.2787 0.969578 44.8375C2.75067 33.259 8.34394 22.5537 16.9287 14.4589C25.5135 6.36409 36.5286 1.40886 48.1917 0.310468C50.6508 0.0788857 52.6754 2.08233 52.6982 4.55217L52.8587 22.0004C52.8814 24.4702 50.8831 26.4523 48.4524 26.8912C43.4498 27.7946 38.7803 30.1308 35.0356 33.6618C31.291 37.1927 28.6847 41.717 27.4892 46.658C26.9084 49.0587 24.8124 50.9372 22.3481 50.7696L4.93944 49.5852Z"/>
</mask>
<path d="M4.93944 49.5852C2.47519 49.4175 0.594051 47.2787 0.969578 44.8375C2.75067 33.259 8.34394 22.5537 16.9287 14.4589C25.5135 6.36409 36.5286 1.40886 48.1917 0.310468C50.6508 0.0788857 52.6754 2.08233 52.6982 4.55217L52.8587 22.0004C52.8814 24.4702 50.8831 26.4523 48.4524 26.8912C43.4498 27.7946 38.7803 30.1308 35.0356 33.6618C31.291 37.1927 28.6847 41.717 27.4892 46.658C26.9084 49.0587 24.8124 50.9372 22.3481 50.7696L4.93944 49.5852Z" fill="black" fill-opacity="0.2" stroke="white" stroke-width="3.57778" mask="url(#path-2-inside-2_3911_16008)"/>
</g>
<g opacity="0.8">
<mask id="path-3-inside-3_3911_16008" fill="white">
<path d="M18.9788 87.0282C17.2323 88.7747 14.3842 88.786 12.7917 86.898C8.91239 82.2986 5.84067 77.0609 3.7194 71.4069C1.59813 65.7528 0.466686 59.7872 0.363362 53.7711C0.32095 51.3015 2.47369 49.4367 4.938 49.6034L22.3471 50.7812C24.8114 50.9479 26.6346 53.0922 26.8859 55.5493C27.1156 57.7959 27.6333 60.0099 28.4309 62.1357C29.2285 64.2616 30.2948 66.2698 31.5994 68.113C33.0264 70.129 33.0636 72.9434 31.3171 74.6899L18.9788 87.0282Z"/>
</mask>
<path d="M18.9788 87.0282C17.2323 88.7747 14.3842 88.786 12.7917 86.898C8.91239 82.2986 5.84067 77.0609 3.7194 71.4069C1.59813 65.7528 0.466686 59.7872 0.363362 53.7711C0.32095 51.3015 2.47369 49.4367 4.938 49.6034L22.3471 50.7812C24.8114 50.9479 26.6346 53.0922 26.8859 55.5493C27.1156 57.7959 27.6333 60.0099 28.4309 62.1357C29.2285 64.2616 30.2948 66.2698 31.5994 68.113C33.0264 70.129 33.0636 72.9434 31.3171 74.6899L18.9788 87.0282Z" fill="url(#paint1_linear_3911_16008)" stroke="white" stroke-width="3.57778" mask="url(#path-3-inside-3_3911_16008)"/>
</g>
<defs>
<linearGradient id="paint0_linear_3911_16008" x1="71.9331" y1="53.446" x2="56.6397" y2="-206.815" gradientUnits="userSpaceOnUse">
<stop stop-color="#1B59F8"/>
<stop offset="1" stop-color="#1B59F8" stop-opacity="0"/>
</linearGradient>
<linearGradient id="paint1_linear_3911_16008" x1="34.3519" y1="52.2831" x2="49.6452" y2="312.544" gradientUnits="userSpaceOnUse">
<stop stop-color="#1B59F8"/>
<stop offset="1" stop-color="#1B59F8" stop-opacity="0.46"/>
</linearGradient>
</defs>
</svg>
