<svg width="107" height="107" viewBox="0 0 107 107" fill="none" xmlns="http://www.w3.org/2000/svg">
<mask id="path-1-inside-1_3911_16005" fill="white">
<path d="M54.9776 5.1464C55.0462 2.67741 57.1075 0.711881 59.5618 0.989084C68.6096 2.01098 77.2668 5.36 84.6731 10.7432C93.2888 17.0055 99.8085 25.7277 103.376 35.7638C106.943 45.7999 107.39 56.6803 104.66 66.9754C102.312 75.8254 97.7109 83.887 91.3377 90.39C89.6089 92.154 86.7695 91.9304 85.1581 90.0585L73.7742 76.8345C72.1628 74.9626 72.4097 72.1589 73.9831 70.2548C76.3986 67.3316 78.1673 63.908 79.1485 60.2089C80.5138 55.0614 80.2899 49.6211 78.5064 44.6031C76.7228 39.5851 73.463 35.224 69.1551 32.0928C66.0595 29.8428 62.5267 28.3035 58.8082 27.5605C56.3861 27.0766 54.425 25.0577 54.4935 22.5887L54.9776 5.1464Z"/>
</mask>
<path d="M54.9776 5.1464C55.0462 2.67741 57.1075 0.711881 59.5618 0.989084C68.6096 2.01098 77.2668 5.36 84.6731 10.7432C93.2888 17.0055 99.8085 25.7277 103.376 35.7638C106.943 45.7999 107.39 56.6803 104.66 66.9754C102.312 75.8254 97.7109 83.887 91.3377 90.39C89.6089 92.154 86.7695 91.9304 85.1581 90.0585L73.7742 76.8345C72.1628 74.9626 72.4097 72.1589 73.9831 70.2548C76.3986 67.3316 78.1673 63.908 79.1485 60.2089C80.5138 55.0614 80.2899 49.6211 78.5064 44.6031C76.7228 39.5851 73.463 35.224 69.1551 32.0928C66.0595 29.8428 62.5267 28.3035 58.8082 27.5605C56.3861 27.0766 54.425 25.0577 54.4935 22.5887L54.9776 5.1464Z" fill="url(#paint0_linear_3911_16005)" stroke="white" stroke-width="3.57778" mask="url(#path-1-inside-1_3911_16005)"/>
<g opacity="0.4">
<mask id="path-2-inside-2_3911_16005" fill="white">
<path d="M84.9629 90.2255C86.5644 92.1059 86.3482 94.9458 84.339 96.3824C78.6197 100.472 72.128 103.386 65.2398 104.938C56.8939 106.819 48.216 106.643 39.9534 104.425C31.6907 102.207 24.0909 98.0146 17.8082 92.2079C11.5255 86.4011 6.74836 79.1544 3.88799 71.0917C1.02761 63.0289 0.169766 54.3917 1.3883 45.9239C2.60684 37.456 5.86525 29.4112 10.883 22.4821C15.9007 15.553 22.5274 9.9473 30.1924 6.14767C36.5187 3.01166 43.3958 1.18349 50.4136 0.754161C52.8789 0.603343 54.8365 2.67211 54.7781 5.14137L54.366 22.5855C54.3077 25.0547 52.2455 26.9703 49.8018 27.3292C47.0687 27.7306 44.4062 28.56 41.9147 29.7951C38.0822 31.6949 34.7688 34.4978 32.26 37.9623C29.7511 41.4268 28.1219 45.4493 27.5126 49.6832C26.9034 53.9171 27.3323 58.2357 28.7625 62.2671C30.1927 66.2985 32.5813 69.9218 35.7226 72.8252C38.8639 75.7285 42.6638 77.8249 46.7952 78.9337C50.9265 80.0426 55.2654 80.1307 59.4384 79.1905C62.1513 78.5792 64.7411 77.5452 67.1161 76.1345C69.2397 74.8731 72.048 75.0608 73.6495 76.9412L84.9629 90.2255Z"/>
</mask>
<path d="M84.9629 90.2255C86.5644 92.1059 86.3482 94.9458 84.339 96.3824C78.6197 100.472 72.128 103.386 65.2398 104.938C56.8939 106.819 48.216 106.643 39.9534 104.425C31.6907 102.207 24.0909 98.0146 17.8082 92.2079C11.5255 86.4011 6.74836 79.1544 3.88799 71.0917C1.02761 63.0289 0.169766 54.3917 1.3883 45.9239C2.60684 37.456 5.86525 29.4112 10.883 22.4821C15.9007 15.553 22.5274 9.9473 30.1924 6.14767C36.5187 3.01166 43.3958 1.18349 50.4136 0.754161C52.8789 0.603343 54.8365 2.67211 54.7781 5.14137L54.366 22.5855C54.3077 25.0547 52.2455 26.9703 49.8018 27.3292C47.0687 27.7306 44.4062 28.56 41.9147 29.7951C38.0822 31.6949 34.7688 34.4978 32.26 37.9623C29.7511 41.4268 28.1219 45.4493 27.5126 49.6832C26.9034 53.9171 27.3323 58.2357 28.7625 62.2671C30.1927 66.2985 32.5813 69.9218 35.7226 72.8252C38.8639 75.7285 42.6638 77.8249 46.7952 78.9337C50.9265 80.0426 55.2654 80.1307 59.4384 79.1905C62.1513 78.5792 64.7411 77.5452 67.1161 76.1345C69.2397 74.8731 72.048 75.0608 73.6495 76.9412L84.9629 90.2255Z" fill="url(#paint1_linear_3911_16005)" fill-opacity="0.8" stroke="white" stroke-width="3.57778" mask="url(#path-2-inside-2_3911_16005)"/>
</g>
<defs>
<linearGradient id="paint0_linear_3911_16005" x1="72.4277" y1="54.024" x2="57.1343" y2="-206.238" gradientUnits="userSpaceOnUse">
<stop stop-color="#1B59F8"/>
<stop offset="1" stop-color="#1B59F8" stop-opacity="0"/>
</linearGradient>
<linearGradient id="paint1_linear_3911_16005" x1="34.8464" y1="52.861" x2="50.1398" y2="313.123" gradientUnits="userSpaceOnUse">
<stop stop-color="#1B59F8"/>
<stop offset="1" stop-color="#1B59F8" stop-opacity="0"/>
</linearGradient>
</defs>
</svg>
