<svg width="12" height="15" viewBox="0 0 12 15" fill="none" xmlns="http://www.w3.org/2000/svg">
<path d="M10.0134 5.17915H8.70975V1.07961C8.70975 0.628663 8.3408 0.259705 7.88985 0.259705H4.61022C4.15927 0.259705 3.79031 0.628663 3.79031 1.07961V5.17915H2.48666C1.75694 5.17915 1.38798 6.06465 1.90452 6.58119L5.6679 10.3446C5.98766 10.6643 6.5042 10.6643 6.82397 10.3446L10.5873 6.58119C11.1039 6.06465 10.7431 5.17915 10.0134 5.17915ZM0.510681 13.3782C0.510681 13.8292 0.879639 14.1981 1.33059 14.1981H11.1695C11.6204 14.1981 11.9894 13.8292 11.9894 13.3782C11.9894 12.9273 11.6204 12.5583 11.1695 12.5583H1.33059C0.879639 12.5583 0.510681 12.9273 0.510681 13.3782Z" fill="#4D4D4D"/>
</svg>
