<svg width="20" height="11" viewBox="0 0 20 11" fill="none" xmlns="http://www.w3.org/2000/svg">
<path d="M14.4731 1.09359L15.8507 2.38159L11.1822 6.74648L8.03474 3.80376C7.66164 3.45492 7.05894 3.45492 6.68584 3.80376L0.945841 9.17937C0.572741 9.5282 0.572741 10.0917 0.945841 10.4405C1.31894 10.7894 1.92164 10.7894 2.29474 10.4405L7.35551 5.69998L10.5029 8.6427C10.876 8.99153 11.4787 8.99153 11.8518 8.6427L17.1996 3.6517L18.5772 4.9397C18.8738 5.21698 19.3904 5.0202 19.3904 4.62665V0.780535C19.3999 0.530091 19.1895 0.333313 18.9216 0.333313H14.8175C14.387 0.333313 14.1765 0.816313 14.4731 1.09359Z" fill="#1B59F8"/>
</svg>
