<svg width="24" height="22" viewBox="0 0 24 22" fill="none" xmlns="http://www.w3.org/2000/svg">
<g clip-path="url(#clip0_4212_734)">
<path d="M19.1237 11.7543C19.1626 11.4681 19.1917 11.1818 19.1917 10.8777C19.1917 10.5736 19.1626 10.2874 19.1237 10.0012L21.1751 8.52534C21.3598 8.39118 21.4084 8.14968 21.2917 7.9529L19.3473 4.85812C19.2306 4.66134 18.9681 4.58979 18.7542 4.66134L16.3334 5.55579C15.8278 5.19801 15.2834 4.90284 14.6903 4.67923L14.3209 2.30896C14.2917 2.09429 14.0876 1.93329 13.8445 1.93329H9.95561C9.71255 1.93329 9.50838 2.09429 9.47922 2.30896L9.10977 4.67923C8.51672 4.90284 7.97227 5.20696 7.46672 5.55579L5.04588 4.66134C4.82227 4.58084 4.5695 4.66134 4.45283 4.85812L2.50838 7.9529C2.382 8.14968 2.44033 8.39118 2.62505 8.52534L4.67644 10.0012C4.63755 10.2874 4.60838 10.5826 4.60838 10.8777C4.60838 11.1729 4.63755 11.4681 4.67644 11.7543L2.62505 13.2301C2.44033 13.3643 2.39172 13.6058 2.50838 13.8026L4.45283 16.8973C4.5695 17.0941 4.832 17.1657 5.04588 17.0941L7.46672 16.1997C7.97227 16.5575 8.51672 16.8526 9.10977 17.0762L9.47922 19.4465C9.50838 19.6612 9.71255 19.8222 9.95561 19.8222H13.8445C14.0876 19.8222 14.2917 19.6612 14.3209 19.4465L14.6903 17.0762C15.2834 16.8526 15.8278 16.5485 16.3334 16.1997L18.7542 17.0941C18.9778 17.1746 19.2306 17.0941 19.3473 16.8973L21.2917 13.8026C21.4084 13.6058 21.3598 13.3643 21.1751 13.2301L19.1237 11.7543V11.7543ZM11.9001 14.0083C10.0237 14.0083 8.49727 12.604 8.49727 10.8777C8.49727 9.15145 10.0237 7.74718 11.9001 7.74718C13.7764 7.74718 15.3028 9.15145 15.3028 10.8777C15.3028 12.604 13.7764 14.0083 11.9001 14.0083Z" fill="black"/>
</g>
<defs>
<clipPath id="clip0_4212_734">
<rect width="23.3333" height="21.4667" fill="white" transform="translate(0.233398 0.144409)"/>
</clipPath>
</defs>
</svg>
