<svg width="23" height="23" viewBox="0 0 23 23" fill="none" xmlns="http://www.w3.org/2000/svg">
<path d="M5.46109 10.7888H8.14443C8.63637 10.7888 9.03887 10.3863 9.03887 9.8944V6.31662C9.03887 5.82468 8.63637 5.42218 8.14443 5.42218H5.46109C4.96915 5.42218 4.56665 5.82468 4.56665 6.31662V9.8944C4.56665 10.3863 4.96915 10.7888 5.46109 10.7888ZM5.46109 17.05H8.14443C8.63637 17.05 9.03887 16.6475 9.03887 16.1555V12.5777C9.03887 12.0858 8.63637 11.6833 8.14443 11.6833H5.46109C4.96915 11.6833 4.56665 12.0858 4.56665 12.5777V16.1555C4.56665 16.6475 4.96915 17.05 5.46109 17.05ZM10.8278 17.05H13.5111C14.003 17.05 14.4055 16.6475 14.4055 16.1555V12.5777C14.4055 12.0858 14.003 11.6833 13.5111 11.6833H10.8278C10.3358 11.6833 9.93332 12.0858 9.93332 12.5777V16.1555C9.93332 16.6475 10.3358 17.05 10.8278 17.05ZM16.1944 17.05H18.8778C19.3697 17.05 19.7722 16.6475 19.7722 16.1555V12.5777C19.7722 12.0858 19.3697 11.6833 18.8778 11.6833H16.1944C15.7025 11.6833 15.3 12.0858 15.3 12.5777V16.1555C15.3 16.6475 15.7025 17.05 16.1944 17.05ZM10.8278 10.7888H13.5111C14.003 10.7888 14.4055 10.3863 14.4055 9.8944V6.31662C14.4055 5.82468 14.003 5.42218 13.5111 5.42218H10.8278C10.3358 5.42218 9.93332 5.82468 9.93332 6.31662V9.8944C9.93332 10.3863 10.3358 10.7888 10.8278 10.7888ZM15.3 6.31662V9.8944C15.3 10.3863 15.7025 10.7888 16.1944 10.7888H18.8778C19.3697 10.7888 19.7722 10.3863 19.7722 9.8944V6.31662C19.7722 5.82468 19.3697 5.42218 18.8778 5.42218H16.1944C15.7025 5.42218 15.3 5.82468 15.3 6.31662Z" fill="black"/>
</svg>
